<svg xmlns="http://www.w3.org/2000/svg" xmlns:xlink="http://www.w3.org/1999/xlink" width="72" zoomAndPan="magnify" viewBox="0 0 54 54" height="72" preserveAspectRatio="xMidYMid meet" version="1.0"><defs><clipPath id="713aa9630f"><path d="M 0.492188 0.664062 L 52.773438 0.664062 L 52.773438 52.945312 L 0.492188 52.945312 Z M 0.492188 0.664062 " clip-rule="nonzero"/></clipPath></defs><g clip-path="url(#713aa9630f)"><path fill="#e14d2a" d="M 52.773438 26.804688 C 52.773438 12.367188 41.070312 0.664062 26.632812 0.664062 C 12.195312 0.664062 0.492188 12.367188 0.492188 26.804688 C 0.492188 41.242188 12.195312 52.945312 26.632812 52.945312 C 41.070312 52.945312 52.773438 41.242188 52.773438 26.804688 Z M 23.976562 47.636719 C 24.230469 47.8125 24.5625 47.621094 24.5625 47.308594 L 24.5625 38.339844 C 24.5625 38.121094 24.386719 37.9375 24.167969 37.929688 C 22.269531 37.855469 20.414062 37.695312 18.617188 37.453125 C 18.324219 37.414062 18.085938 37.683594 18.167969 37.96875 C 18.75 39.933594 19.476562 41.691406 20.300781 43.191406 C 21.527344 45.429688 22.804688 46.828125 23.976562 47.636719 Z M 29.3125 37.921875 C 29.09375 37.929688 28.917969 38.113281 28.917969 38.332031 L 28.917969 47.152344 C 28.917969 47.46875 29.265625 47.660156 29.519531 47.472656 C 30.625 46.640625 31.816406 45.285156 32.964844 43.191406 C 33.789062 41.691406 34.511719 39.933594 35.09375 37.96875 C 35.179688 37.683594 34.9375 37.414062 34.644531 37.453125 C 32.917969 37.683594 31.136719 37.84375 29.3125 37.921875 Z M 29.34375 33.558594 C 29.113281 33.570312 28.917969 33.382812 28.917969 33.152344 L 28.917969 24.574219 C 28.917969 24.355469 29.089844 24.175781 29.3125 24.164062 C 31.644531 24.046875 33.902344 23.769531 36.035156 23.355469 C 36.273438 23.308594 36.503906 23.480469 36.523438 23.726562 C 36.59375 24.730469 36.628906 25.753906 36.628906 26.804688 C 36.628906 28.789062 36.496094 30.699219 36.253906 32.507812 C 36.226562 32.683594 36.09375 32.820312 35.921875 32.851562 C 33.847656 33.207031 31.644531 33.453125 29.34375 33.558594 Z M 24.136719 19.8125 C 24.367188 19.824219 24.5625 19.636719 24.5625 19.40625 L 24.5625 6.296875 C 24.5625 5.988281 24.230469 5.792969 23.976562 5.96875 C 22.804688 6.78125 21.527344 8.175781 20.300781 10.417969 C 19.089844 12.621094 18.089844 15.386719 17.445312 18.546875 C 17.398438 18.761719 17.539062 18.976562 17.757812 19.019531 C 19.734375 19.421875 21.875 19.695312 24.136719 19.8125 Z M 28.917969 19.394531 C 28.917969 19.625 29.113281 19.8125 29.347656 19.800781 C 31.527344 19.675781 33.59375 19.40625 35.503906 19.019531 C 35.722656 18.976562 35.863281 18.761719 35.820312 18.546875 C 35.171875 15.386719 34.175781 12.621094 32.964844 10.417969 C 31.816406 8.324219 30.625 6.964844 29.519531 6.136719 C 29.265625 5.945312 28.917969 6.136719 28.917969 6.457031 Z M 24.136719 33.570312 C 24.371094 33.578125 24.5625 33.394531 24.5625 33.160156 L 24.5625 24.585938 C 24.5625 24.367188 24.386719 24.1875 24.167969 24.175781 C 21.757812 24.0625 19.425781 23.785156 17.230469 23.355469 C 16.988281 23.308594 16.757812 23.480469 16.742188 23.726562 C 16.671875 24.730469 16.632812 25.753906 16.632812 26.804688 C 16.632812 28.789062 16.765625 30.699219 17.011719 32.507812 C 17.035156 32.683594 17.167969 32.820312 17.34375 32.851562 C 19.480469 33.21875 21.757812 33.464844 24.136719 33.570312 Z M 37.378906 45.757812 C 37.019531 45.960938 36.640625 45.554688 36.835938 45.191406 C 38.148438 42.78125 39.203125 39.902344 39.921875 36.710938 C 39.953125 36.558594 40.074219 36.4375 40.226562 36.402344 C 42.410156 35.859375 44.453125 35.191406 46.3125 34.410156 C 46.644531 34.269531 46.988281 34.589844 46.851562 34.921875 C 45.007812 39.515625 41.640625 43.335938 37.378906 45.757812 Z M 40.789062 31.152344 C 40.761719 31.441406 41.035156 31.667969 41.3125 31.582031 C 44 30.761719 46.324219 29.734375 48.183594 28.5625 C 48.292969 28.496094 48.359375 28.378906 48.367188 28.25 C 48.398438 27.773438 48.414062 27.289062 48.414062 26.804688 C 48.414062 24.316406 48 21.929688 47.230469 19.703125 C 47.148438 19.453125 46.851562 19.355469 46.628906 19.496094 C 45.023438 20.484375 43.152344 21.339844 41.074219 22.039062 C 40.890625 22.101562 40.773438 22.277344 40.792969 22.46875 C 40.921875 23.878906 40.988281 25.328125 40.988281 26.804688 C 40.988281 28.285156 40.917969 29.738281 40.789062 31.152344 Z M 4.894531 28.25 C 4.902344 28.378906 4.972656 28.496094 5.082031 28.5625 C 6.9375 29.734375 9.265625 30.761719 11.949219 31.582031 C 12.226562 31.667969 12.5 31.441406 12.472656 31.152344 C 12.34375 29.738281 12.277344 28.285156 12.277344 26.804688 C 12.277344 25.328125 12.34375 23.878906 12.472656 22.46875 C 12.488281 22.277344 12.375 22.101562 12.191406 22.039062 C 10.113281 21.339844 8.238281 20.484375 6.636719 19.496094 C 6.414062 19.355469 6.117188 19.453125 6.03125 19.703125 C 5.265625 21.929688 4.847656 24.316406 4.847656 26.804688 C 4.847656 27.289062 4.863281 27.773438 4.894531 28.25 Z M 13.34375 36.710938 C 13.308594 36.558594 13.191406 36.4375 13.039062 36.402344 C 10.855469 35.859375 8.8125 35.191406 6.953125 34.410156 C 6.621094 34.269531 6.277344 34.589844 6.410156 34.921875 C 8.257812 39.515625 11.625 43.335938 15.886719 45.757812 C 16.242188 45.960938 16.625 45.554688 16.429688 45.191406 C 15.117188 42.78125 14.0625 39.902344 13.34375 36.710938 Z M 44.910156 14.949219 C 45.027344 15.128906 44.980469 15.371094 44.796875 15.492188 C 43.625 16.273438 42.191406 16.988281 40.550781 17.601562 C 40.316406 17.6875 40.0625 17.546875 40.007812 17.300781 C 39.289062 13.945312 38.203125 10.929688 36.835938 8.414062 C 36.640625 8.054688 37.019531 7.648438 37.378906 7.851562 C 40.421875 9.578125 43.007812 12.019531 44.910156 14.949219 Z M 12.714844 17.601562 C 12.949219 17.6875 13.203125 17.546875 13.253906 17.300781 C 13.972656 13.945312 15.0625 10.929688 16.429688 8.414062 C 16.625 8.054688 16.242188 7.648438 15.886719 7.851562 C 12.84375 9.578125 10.257812 12.019531 8.355469 14.949219 C 8.234375 15.128906 8.285156 15.371094 8.464844 15.492188 C 9.636719 16.273438 11.070312 16.988281 12.714844 17.601562 Z M 12.714844 17.601562 " fill-opacity="1" fill-rule="evenodd"/></g></svg>