<svg xmlns="http://www.w3.org/2000/svg" xmlns:xlink="http://www.w3.org/1999/xlink" width="72" zoomAndPan="magnify" viewBox="0 0 54 54" height="72" preserveAspectRatio="xMidYMid meet" version="1.0"><defs><clipPath id="8c678d40f4"><path d="M 0.492188 0 L 53.507812 0 L 53.507812 53.019531 L 0.492188 53.019531 Z M 0.492188 0 " clip-rule="nonzero"/></clipPath><clipPath id="59fb72a98a"><path d="M 36 19 L 53.507812 19 L 53.507812 37 L 36 37 Z M 36 19 " clip-rule="nonzero"/></clipPath><clipPath id="097c4c075c"><path d="M 23 0.265625 L 33 0.265625 L 33 9 L 23 9 Z M 23 0.265625 " clip-rule="nonzero"/></clipPath><clipPath id="fceca3ffcb"><path d="M 23 44 L 33 44 L 33 52.546875 L 23 52.546875 Z M 23 44 " clip-rule="nonzero"/></clipPath><clipPath id="8f9e0be93b"><path d="M 0.492188 20 L 17 20 L 17 38 L 0.492188 38 Z M 0.492188 20 " clip-rule="nonzero"/></clipPath></defs><g clip-path="url(#8c678d40f4)"><path fill="#ffffff" d="M 0.492188 0 L 53.507812 0 L 53.507812 60.382812 L 0.492188 60.382812 Z M 0.492188 0 " fill-opacity="1" fill-rule="nonzero"/><path fill="#ffffff" d="M 0.492188 0 L 53.507812 0 L 53.507812 53.019531 L 0.492188 53.019531 Z M 0.492188 0 " fill-opacity="1" fill-rule="nonzero"/><path fill="#ffffff" d="M 0.492188 0 L 53.507812 0 L 53.507812 53.019531 L 0.492188 53.019531 Z M 0.492188 0 " fill-opacity="1" fill-rule="nonzero"/></g><g clip-path="url(#59fb72a98a)"><path fill="#000000" d="M 44.972656 35.4375 C 41.03125 35.4375 37.820312 32.238281 37.820312 28.3125 C 37.820312 24.382812 41.03125 21.1875 44.972656 21.1875 C 48.914062 21.1875 52.125 24.382812 52.125 28.3125 C 52.125 32.238281 48.914062 35.4375 44.972656 35.4375 Z M 44.972656 19.910156 C 40.324219 19.910156 36.539062 23.679688 36.539062 28.3125 C 36.539062 32.945312 40.324219 36.714844 44.972656 36.714844 C 49.625 36.714844 53.40625 32.945312 53.40625 28.3125 C 53.40625 23.679688 49.625 19.910156 44.972656 19.910156 " fill-opacity="1" fill-rule="nonzero"/></g><g clip-path="url(#097c4c075c)"><path fill="#000000" d="M 27.972656 1.546875 C 29.558594 1.546875 30.851562 2.832031 30.851562 4.417969 C 30.851562 6 29.558594 7.289062 27.972656 7.289062 C 26.382812 7.289062 25.089844 6 25.089844 4.417969 C 25.089844 2.832031 26.382812 1.546875 27.972656 1.546875 Z M 27.972656 8.566406 C 30.265625 8.566406 32.132812 6.703125 32.132812 4.417969 C 32.132812 2.128906 30.265625 0.269531 27.972656 0.269531 C 25.675781 0.269531 23.808594 2.128906 23.808594 4.417969 C 23.808594 6.703125 25.675781 8.566406 27.972656 8.566406 " fill-opacity="1" fill-rule="nonzero"/></g><path fill="#000000" d="M 24.644531 14.257812 C 24.644531 12.433594 26.136719 10.945312 27.972656 10.945312 C 29.804688 10.945312 31.296875 12.433594 31.296875 14.257812 L 31.296875 16.707031 L 24.644531 16.707031 Z M 23.363281 17.347656 C 23.363281 17.699219 23.648438 17.984375 24.003906 17.984375 L 31.9375 17.984375 C 32.292969 17.984375 32.578125 17.699219 32.578125 17.347656 L 32.578125 14.257812 C 32.578125 11.726562 30.511719 9.667969 27.972656 9.667969 C 25.429688 9.667969 23.363281 11.726562 23.363281 14.257812 L 23.363281 17.347656 " fill-opacity="1" fill-rule="nonzero"/><path fill="#000000" d="M 27.972656 41.847656 C 26.382812 41.847656 25.089844 40.558594 25.089844 38.976562 C 25.089844 37.390625 26.382812 36.105469 27.972656 36.105469 C 29.558594 36.105469 30.851562 37.390625 30.851562 38.976562 C 30.851562 40.558594 29.558594 41.847656 27.972656 41.847656 Z M 27.972656 34.828125 C 25.675781 34.828125 23.808594 36.6875 23.808594 38.976562 C 23.808594 41.261719 25.675781 43.125 27.972656 43.125 C 30.265625 43.125 32.132812 41.261719 32.132812 38.976562 C 32.132812 36.6875 30.265625 34.828125 27.972656 34.828125 " fill-opacity="1" fill-rule="nonzero"/><g clip-path="url(#fceca3ffcb)"><path fill="#000000" d="M 31.296875 51.265625 L 24.644531 51.265625 L 24.644531 48.816406 C 24.644531 46.988281 26.136719 45.503906 27.972656 45.503906 C 29.804688 45.503906 31.296875 46.988281 31.296875 48.816406 Z M 32.578125 51.90625 L 32.578125 48.816406 C 32.578125 46.285156 30.511719 44.226562 27.972656 44.226562 C 25.429688 44.226562 23.363281 46.285156 23.363281 48.816406 L 23.363281 51.90625 C 23.363281 52.257812 23.648438 52.542969 24.003906 52.542969 L 31.9375 52.542969 C 32.292969 52.542969 32.578125 52.257812 32.578125 51.90625 " fill-opacity="1" fill-rule="nonzero"/></g><g clip-path="url(#8f9e0be93b)"><path fill="#000000" d="M 2.890625 28.992188 L 4.28125 27.722656 L 5.757812 30.144531 L 7.238281 32.570312 L 5.464844 33.214844 C 4.527344 33.554688 3.476562 33.1875 2.960938 32.339844 L 2.515625 31.613281 C 1.996094 30.765625 2.15625 29.664062 2.890625 28.992188 Z M 9.253906 22.050781 L 14.582031 30.789062 C 12.375 31.074219 9.589844 31.835938 8.484375 32.152344 L 6.855469 29.484375 L 5.230469 26.816406 C 6.019531 25.984375 7.984375 23.867188 9.253906 22.050781 Z M 1.417969 32.273438 L 1.863281 33.003906 C 2.488281 34.027344 3.597656 34.617188 4.753906 34.617188 C 5.050781 34.617188 5.355469 34.578125 5.652344 34.492188 C 6.566406 34.878906 8.128906 35.671875 9.605469 37.097656 C 9.722656 37.210938 9.882812 37.277344 10.050781 37.277344 C 10.070312 37.277344 10.085938 37.273438 10.105469 37.273438 C 10.292969 37.257812 10.460938 37.164062 10.570312 37.011719 L 11.320312 35.976562 C 11.832031 35.273438 11.761719 34.316406 11.152344 33.695312 C 10.90625 33.441406 10.5 33.4375 10.246094 33.683594 C 9.992188 33.925781 9.988281 34.332031 10.234375 34.585938 C 10.40625 34.761719 10.425781 35.03125 10.285156 35.226562 L 9.953125 35.683594 C 9.039062 34.890625 8.125 34.308594 7.347656 33.890625 L 8.394531 33.507812 C 8.707031 33.414062 13.175781 32.09375 15.695312 31.964844 C 15.921875 31.953125 16.121094 31.824219 16.226562 31.628906 C 16.335938 31.429688 16.328125 31.1875 16.210938 30.996094 L 9.816406 20.515625 C 9.699219 20.324219 9.492188 20.207031 9.269531 20.207031 C 9.269531 20.207031 9.265625 20.207031 9.265625 20.207031 C 9.039062 20.210938 8.828125 20.328125 8.714844 20.523438 C 7.441406 22.691406 4.199219 26.039062 3.976562 26.269531 L 2.023438 28.050781 C 0.839844 29.132812 0.585938 30.90625 1.417969 32.273438 " fill-opacity="1" fill-rule="nonzero"/></g><path fill="#000000" d="M 45.222656 27.679688 C 45.1875 27.679688 45.085938 27.675781 44.988281 27.671875 C 44.90625 27.671875 44.828125 27.667969 44.796875 27.667969 C 44.339844 27.640625 43.980469 27.257812 43.980469 26.800781 C 43.980469 26.371094 44.292969 26 44.710938 25.9375 C 44.820312 25.921875 44.898438 25.921875 44.925781 25.921875 C 44.929688 25.921875 44.933594 25.921875 44.933594 25.921875 C 44.941406 25.921875 44.953125 25.921875 44.964844 25.921875 C 45.511719 25.921875 45.703125 26.335938 45.730469 26.40625 C 45.851562 26.742188 46.214844 26.914062 46.550781 26.796875 C 46.882812 26.679688 47.058594 26.3125 46.941406 25.980469 C 46.800781 25.585938 46.375 24.96875 45.605469 24.738281 L 45.605469 24.300781 C 45.605469 23.949219 45.316406 23.664062 44.964844 23.664062 C 44.609375 23.664062 44.324219 23.949219 44.324219 24.300781 L 44.324219 24.714844 C 43.382812 24.949219 42.695312 25.8125 42.695312 26.800781 C 42.695312 27.933594 43.585938 28.875 44.722656 28.945312 C 44.757812 28.945312 44.859375 28.949219 44.957031 28.949219 C 45.039062 28.953125 45.117188 28.953125 45.148438 28.957031 C 45.605469 28.984375 45.964844 29.363281 45.964844 29.824219 C 45.964844 30.253906 45.652344 30.621094 45.234375 30.683594 C 45.128906 30.699219 45.046875 30.699219 45.023438 30.699219 C 45.015625 30.699219 45.011719 30.699219 45.015625 30.699219 C 45.003906 30.699219 44.992188 30.699219 44.980469 30.699219 C 44.4375 30.699219 44.246094 30.292969 44.210938 30.207031 C 44.089844 29.878906 43.726562 29.710938 43.394531 29.828125 C 43.0625 29.945312 42.886719 30.308594 43.003906 30.640625 C 43.144531 31.035156 43.5625 31.644531 44.324219 31.878906 L 44.324219 32.320312 C 44.324219 32.675781 44.609375 32.960938 44.964844 32.960938 C 45.316406 32.960938 45.605469 32.675781 45.605469 32.320312 L 45.605469 31.910156 C 46.554688 31.683594 47.25 30.820312 47.25 29.824219 C 47.25 28.691406 46.359375 27.746094 45.222656 27.679688 " fill-opacity="1" fill-rule="nonzero"/><path fill="#000000" d="M 15.714844 26.996094 C 15.726562 26.996094 15.734375 26.996094 15.746094 26.996094 C 16.085938 26.996094 16.371094 26.730469 16.386719 26.386719 C 16.429688 25.511719 16.207031 24.648438 15.75 23.894531 C 15.257812 23.089844 14.535156 22.472656 13.660156 22.113281 C 13.332031 21.976562 12.957031 22.132812 12.820312 22.460938 C 12.6875 22.785156 12.84375 23.160156 13.171875 23.292969 C 13.792969 23.546875 14.304688 23.984375 14.652344 24.558594 C 14.980469 25.09375 15.136719 25.703125 15.105469 26.324219 C 15.089844 26.679688 15.363281 26.976562 15.714844 26.996094 " fill-opacity="1" fill-rule="nonzero"/><path fill="#000000" d="M 18.347656 27.742188 C 18.378906 27.746094 18.410156 27.75 18.441406 27.75 C 18.753906 27.75 19.03125 27.519531 19.074219 27.203125 C 19.3125 25.566406 18.96875 23.882812 18.105469 22.46875 C 17.210938 21 15.816406 19.902344 14.175781 19.378906 C 13.839844 19.269531 13.476562 19.453125 13.371094 19.789062 C 13.261719 20.125 13.445312 20.484375 13.785156 20.59375 C 15.128906 21.023438 16.273438 21.925781 17.011719 23.132812 C 17.71875 24.292969 18.003906 25.675781 17.804688 27.019531 C 17.757812 27.367188 18 27.691406 18.347656 27.742188 " fill-opacity="1" fill-rule="nonzero"/><path fill="#000000" d="M 19.871094 46.59375 C 19.945312 46.617188 20.015625 46.628906 20.089844 46.628906 C 20.351562 46.628906 20.597656 46.46875 20.691406 46.207031 C 20.8125 45.875 20.636719 45.507812 20.304688 45.390625 C 16.976562 44.203125 14.003906 42.144531 11.707031 39.441406 C 11.476562 39.171875 11.074219 39.136719 10.804688 39.367188 C 10.535156 39.59375 10.5 39.996094 10.730469 40.265625 C 13.171875 43.140625 16.332031 45.328125 19.871094 46.59375 " fill-opacity="1" fill-rule="nonzero"/><path fill="#000000" d="M 34.828125 46.207031 C 34.921875 46.46875 35.167969 46.628906 35.433594 46.628906 C 35.503906 46.628906 35.578125 46.617188 35.648438 46.59375 C 39.1875 45.328125 42.351562 43.140625 44.792969 40.265625 C 45.019531 39.996094 44.988281 39.59375 44.714844 39.367188 C 44.445312 39.136719 44.042969 39.171875 43.8125 39.441406 C 41.515625 42.144531 38.542969 44.203125 35.214844 45.390625 C 34.882812 45.507812 34.707031 45.875 34.828125 46.207031 " fill-opacity="1" fill-rule="nonzero"/><path fill="#000000" d="M 20.691406 8.015625 C 20.574219 7.683594 20.207031 7.511719 19.871094 7.628906 C 16.332031 8.894531 13.171875 11.082031 10.730469 13.957031 C 10.5 14.226562 10.535156 14.628906 10.804688 14.859375 C 10.925781 14.960938 11.070312 15.007812 11.21875 15.007812 C 11.398438 15.007812 11.582031 14.933594 11.707031 14.78125 C 14.003906 12.078125 16.976562 10.023438 20.304688 8.832031 C 20.636719 8.714844 20.8125 8.347656 20.691406 8.015625 " fill-opacity="1" fill-rule="nonzero"/><path fill="#000000" d="M 43.8125 14.78125 C 43.941406 14.933594 44.121094 15.007812 44.300781 15.007812 C 44.449219 15.007812 44.597656 14.960938 44.714844 14.859375 C 44.988281 14.628906 45.019531 14.226562 44.792969 13.957031 C 42.351562 11.082031 39.1875 8.894531 35.648438 7.628906 C 35.316406 7.511719 34.949219 7.683594 34.828125 8.015625 C 34.707031 8.347656 34.882812 8.714844 35.214844 8.832031 C 38.542969 10.023438 41.515625 12.078125 43.8125 14.78125 " fill-opacity="1" fill-rule="nonzero"/></svg>