<svg xmlns="http://www.w3.org/2000/svg" xmlns:xlink="http://www.w3.org/1999/xlink" width="72" zoomAndPan="magnify" viewBox="0 0 54 54" height="72" preserveAspectRatio="xMidYMid meet" version="1.0"><defs><clipPath id="d51385b464"><path d="M 0.492188 13 L 27 13 L 27 46.796875 L 0.492188 46.796875 Z M 0.492188 13 " clip-rule="nonzero"/></clipPath><clipPath id="17534f7bf1"><path d="M 1 13 L 28 13 L 28 46.796875 L 1 46.796875 Z M 1 13 " clip-rule="nonzero"/></clipPath><clipPath id="0bf75e66d5"><path d="M 3 15 L 26 15 L 26 45 L 3 45 Z M 3 15 " clip-rule="nonzero"/></clipPath><clipPath id="c7ac6d6b92"><path d="M 3.757812 17.566406 L 11.730469 43.75 C 11.917969 44.367188 12.492188 44.785156 13.140625 44.769531 L 24.167969 44.515625 C 25.167969 44.492188 25.839844 43.480469 25.476562 42.546875 L 15.644531 17.335938 L 15.5625 17.121094 C 15.355469 16.59375 14.863281 16.234375 14.300781 16.203125 L 5.214844 15.707031 C 4.398438 15.664062 3.753906 16.289062 3.699219 17.042969 C 3.6875 17.214844 3.703125 17.390625 3.757812 17.566406 Z M 3.757812 17.566406 " clip-rule="nonzero"/></clipPath><linearGradient x1="2482.7061" gradientTransform="matrix(-0.011343, 0.000220613, 0.000220174, 0.0113656, 42.10556, -6.982374)" y1="1925.967802" x2="2482.7061" gradientUnits="userSpaceOnUse" y2="4525.240931" id="26678b3a34"><stop stop-opacity="1" stop-color="rgb(99.682617%, 99.859619%, 99.989319%)" offset="0"/><stop stop-opacity="1" stop-color="rgb(99.369812%, 99.72229%, 99.980164%)" offset="0.00390625"/><stop stop-opacity="1" stop-color="rgb(99.057007%, 99.584961%, 99.971008%)" offset="0.0078125"/><stop stop-opacity="1" stop-color="rgb(98.744202%, 99.447632%, 99.960327%)" offset="0.0117188"/><stop stop-opacity="1" stop-color="rgb(98.431396%, 99.310303%, 99.951172%)" offset="0.015625"/><stop stop-opacity="1" stop-color="rgb(98.118591%, 99.171448%, 99.942017%)" offset="0.0195312"/><stop stop-opacity="1" stop-color="rgb(97.807312%, 99.034119%, 99.932861%)" offset="0.0234375"/><stop stop-opacity="1" stop-color="rgb(97.494507%, 98.89679%, 99.92218%)" offset="0.0273438"/><stop stop-opacity="1" stop-color="rgb(97.181702%, 98.75946%, 99.913025%)" offset="0.03125"/><stop stop-opacity="1" stop-color="rgb(96.868896%, 98.622131%, 99.902344%)" offset="0.0351562"/><stop stop-opacity="1" stop-color="rgb(96.556091%, 98.484802%, 99.893188%)" offset="0.0390625"/><stop stop-opacity="1" stop-color="rgb(96.243286%, 98.345947%, 99.884033%)" offset="0.0429688"/><stop stop-opacity="1" stop-color="rgb(95.932007%, 98.208618%, 99.874878%)" offset="0.046875"/><stop stop-opacity="1" stop-color="rgb(95.619202%, 98.071289%, 99.864197%)" offset="0.0507812"/><stop stop-opacity="1" stop-color="rgb(95.306396%, 97.93396%, 99.855042%)" offset="0.0546875"/><stop stop-opacity="1" stop-color="rgb(94.993591%, 97.796631%, 99.845886%)" offset="0.0585937"/><stop stop-opacity="1" stop-color="rgb(94.680786%, 97.659302%, 99.836731%)" offset="0.0625"/><stop stop-opacity="1" stop-color="rgb(94.367981%, 97.520447%, 99.82605%)" offset="0.0664063"/><stop stop-opacity="1" stop-color="rgb(94.055176%, 97.383118%, 99.816895%)" offset="0.0703125"/><stop stop-opacity="1" stop-color="rgb(93.742371%, 97.245789%, 99.807739%)" offset="0.0742188"/><stop stop-opacity="1" stop-color="rgb(93.431091%, 97.108459%, 99.798584%)" offset="0.078125"/><stop stop-opacity="1" stop-color="rgb(93.118286%, 96.97113%, 99.787903%)" offset="0.0820312"/><stop stop-opacity="1" stop-color="rgb(92.805481%, 96.833801%, 99.778748%)" offset="0.0859375"/><stop stop-opacity="1" stop-color="rgb(92.492676%, 96.696472%, 99.769592%)" offset="0.0898438"/><stop stop-opacity="1" stop-color="rgb(92.179871%, 96.559143%, 99.760437%)" offset="0.09375"/><stop stop-opacity="1" stop-color="rgb(91.867065%, 96.420288%, 99.749756%)" offset="0.0976562"/><stop stop-opacity="1" stop-color="rgb(91.555786%, 96.282959%, 99.740601%)" offset="0.101562"/><stop stop-opacity="1" stop-color="rgb(91.242981%, 96.14563%, 99.731445%)" offset="0.105469"/><stop stop-opacity="1" stop-color="rgb(90.930176%, 96.008301%, 99.72229%)" offset="0.109375"/><stop stop-opacity="1" stop-color="rgb(90.617371%, 95.870972%, 99.711609%)" offset="0.113281"/><stop stop-opacity="1" stop-color="rgb(90.304565%, 95.733643%, 99.702454%)" offset="0.117188"/><stop stop-opacity="1" stop-color="rgb(89.99176%, 95.594788%, 99.691772%)" offset="0.121094"/><stop stop-opacity="1" stop-color="rgb(89.678955%, 95.457458%, 99.682617%)" offset="0.125"/><stop stop-opacity="1" stop-color="rgb(89.36615%, 95.320129%, 99.673462%)" offset="0.128906"/><stop stop-opacity="1" stop-color="rgb(89.054871%, 95.1828%, 99.664307%)" offset="0.132813"/><stop stop-opacity="1" stop-color="rgb(88.742065%, 95.045471%, 99.653625%)" offset="0.136719"/><stop stop-opacity="1" stop-color="rgb(88.42926%, 94.908142%, 99.64447%)" offset="0.140625"/><stop stop-opacity="1" stop-color="rgb(88.116455%, 94.770813%, 99.635315%)" offset="0.144531"/><stop stop-opacity="1" stop-color="rgb(87.80365%, 94.633484%, 99.62616%)" offset="0.148438"/><stop stop-opacity="1" stop-color="rgb(87.490845%, 94.494629%, 99.615479%)" offset="0.152344"/><stop stop-opacity="1" stop-color="rgb(87.179565%, 94.3573%, 99.606323%)" offset="0.15625"/><stop stop-opacity="1" stop-color="rgb(86.86676%, 94.219971%, 99.597168%)" offset="0.160156"/><stop stop-opacity="1" stop-color="rgb(86.553955%, 94.082642%, 99.588013%)" offset="0.164062"/><stop stop-opacity="1" stop-color="rgb(86.24115%, 93.945312%, 99.577332%)" offset="0.167969"/><stop stop-opacity="1" stop-color="rgb(85.928345%, 93.807983%, 99.568176%)" offset="0.171875"/><stop stop-opacity="1" stop-color="rgb(85.61554%, 93.669128%, 99.559021%)" offset="0.175781"/><stop stop-opacity="1" stop-color="rgb(85.302734%, 93.531799%, 99.549866%)" offset="0.179688"/><stop stop-opacity="1" stop-color="rgb(84.989929%, 93.39447%, 99.539185%)" offset="0.183594"/><stop stop-opacity="1" stop-color="rgb(84.67865%, 93.257141%, 99.530029%)" offset="0.1875"/><stop stop-opacity="1" stop-color="rgb(84.365845%, 93.119812%, 99.520874%)" offset="0.191406"/><stop stop-opacity="1" stop-color="rgb(84.05304%, 92.982483%, 99.511719%)" offset="0.195313"/><stop stop-opacity="1" stop-color="rgb(83.740234%, 92.843628%, 99.501038%)" offset="0.199219"/><stop stop-opacity="1" stop-color="rgb(83.427429%, 92.706299%, 99.491882%)" offset="0.203125"/><stop stop-opacity="1" stop-color="rgb(83.114624%, 92.56897%, 99.482727%)" offset="0.207031"/><stop stop-opacity="1" stop-color="rgb(82.803345%, 92.431641%, 99.473572%)" offset="0.210938"/><stop stop-opacity="1" stop-color="rgb(82.49054%, 92.294312%, 99.462891%)" offset="0.214844"/><stop stop-opacity="1" stop-color="rgb(82.177734%, 92.156982%, 99.453735%)" offset="0.21875"/><stop stop-opacity="1" stop-color="rgb(81.864929%, 92.019653%, 99.443054%)" offset="0.222656"/><stop stop-opacity="1" stop-color="rgb(81.552124%, 91.882324%, 99.433899%)" offset="0.226563"/><stop stop-opacity="1" stop-color="rgb(81.239319%, 91.743469%, 99.424744%)" offset="0.230469"/><stop stop-opacity="1" stop-color="rgb(80.926514%, 91.60614%, 99.415588%)" offset="0.234375"/><stop stop-opacity="1" stop-color="rgb(80.613708%, 91.468811%, 99.404907%)" offset="0.238281"/><stop stop-opacity="1" stop-color="rgb(80.302429%, 91.331482%, 99.395752%)" offset="0.242188"/><stop stop-opacity="1" stop-color="rgb(79.989624%, 91.194153%, 99.386597%)" offset="0.246094"/><stop stop-opacity="1" stop-color="rgb(79.676819%, 91.056824%, 99.377441%)" offset="0.25"/><stop stop-opacity="1" stop-color="rgb(79.364014%, 90.917969%, 99.36676%)" offset="0.253906"/><stop stop-opacity="1" stop-color="rgb(79.051208%, 90.78064%, 99.357605%)" offset="0.257813"/><stop stop-opacity="1" stop-color="rgb(78.738403%, 90.643311%, 99.34845%)" offset="0.261719"/><stop stop-opacity="1" stop-color="rgb(78.427124%, 90.505981%, 99.339294%)" offset="0.265625"/><stop stop-opacity="1" stop-color="rgb(78.114319%, 90.368652%, 99.328613%)" offset="0.269531"/><stop stop-opacity="1" stop-color="rgb(77.801514%, 90.231323%, 99.319458%)" offset="0.273438"/><stop stop-opacity="1" stop-color="rgb(77.488708%, 90.092468%, 99.310303%)" offset="0.277344"/><stop stop-opacity="1" stop-color="rgb(77.175903%, 89.955139%, 99.301147%)" offset="0.28125"/><stop stop-opacity="1" stop-color="rgb(76.863098%, 89.81781%, 99.290466%)" offset="0.285156"/><stop stop-opacity="1" stop-color="rgb(76.550293%, 89.680481%, 99.281311%)" offset="0.289063"/><stop stop-opacity="1" stop-color="rgb(76.237488%, 89.543152%, 99.272156%)" offset="0.292969"/><stop stop-opacity="1" stop-color="rgb(75.926208%, 89.405823%, 99.263%)" offset="0.296875"/><stop stop-opacity="1" stop-color="rgb(75.613403%, 89.268494%, 99.252319%)" offset="0.300781"/><stop stop-opacity="1" stop-color="rgb(75.300598%, 89.131165%, 99.243164%)" offset="0.304688"/><stop stop-opacity="1" stop-color="rgb(74.987793%, 88.99231%, 99.232483%)" offset="0.308594"/><stop stop-opacity="1" stop-color="rgb(74.674988%, 88.85498%, 99.223328%)" offset="0.3125"/><stop stop-opacity="1" stop-color="rgb(74.362183%, 88.717651%, 99.214172%)" offset="0.316406"/><stop stop-opacity="1" stop-color="rgb(74.050903%, 88.580322%, 99.205017%)" offset="0.320313"/><stop stop-opacity="1" stop-color="rgb(73.738098%, 88.442993%, 99.194336%)" offset="0.324219"/><stop stop-opacity="1" stop-color="rgb(73.425293%, 88.305664%, 99.185181%)" offset="0.328125"/><stop stop-opacity="1" stop-color="rgb(73.112488%, 88.166809%, 99.176025%)" offset="0.332031"/><stop stop-opacity="1" stop-color="rgb(72.799683%, 88.02948%, 99.16687%)" offset="0.335938"/><stop stop-opacity="1" stop-color="rgb(72.486877%, 87.892151%, 99.156189%)" offset="0.339844"/><stop stop-opacity="1" stop-color="rgb(72.174072%, 87.754822%, 99.147034%)" offset="0.34375"/><stop stop-opacity="1" stop-color="rgb(71.861267%, 87.617493%, 99.137878%)" offset="0.347656"/><stop stop-opacity="1" stop-color="rgb(71.549988%, 87.480164%, 99.128723%)" offset="0.351563"/><stop stop-opacity="1" stop-color="rgb(71.237183%, 87.342834%, 99.118042%)" offset="0.355469"/><stop stop-opacity="1" stop-color="rgb(70.924377%, 87.205505%, 99.108887%)" offset="0.359375"/><stop stop-opacity="1" stop-color="rgb(70.611572%, 87.06665%, 99.099731%)" offset="0.363281"/><stop stop-opacity="1" stop-color="rgb(70.298767%, 86.929321%, 99.090576%)" offset="0.367188"/><stop stop-opacity="1" stop-color="rgb(69.985962%, 86.791992%, 99.079895%)" offset="0.371094"/><stop stop-opacity="1" stop-color="rgb(69.674683%, 86.654663%, 99.07074%)" offset="0.375"/><stop stop-opacity="1" stop-color="rgb(69.361877%, 86.517334%, 99.061584%)" offset="0.378906"/><stop stop-opacity="1" stop-color="rgb(69.049072%, 86.380005%, 99.052429%)" offset="0.382813"/><stop stop-opacity="1" stop-color="rgb(68.736267%, 86.24115%, 99.041748%)" offset="0.386719"/><stop stop-opacity="1" stop-color="rgb(68.423462%, 86.103821%, 99.032593%)" offset="0.390625"/><stop stop-opacity="1" stop-color="rgb(68.110657%, 85.966492%, 99.021912%)" offset="0.394531"/><stop stop-opacity="1" stop-color="rgb(67.797852%, 85.829163%, 99.012756%)" offset="0.398438"/><stop stop-opacity="1" stop-color="rgb(67.485046%, 85.691833%, 99.003601%)" offset="0.402344"/><stop stop-opacity="1" stop-color="rgb(67.173767%, 85.554504%, 98.994446%)" offset="0.40625"/><stop stop-opacity="1" stop-color="rgb(66.860962%, 85.415649%, 98.983765%)" offset="0.410156"/><stop stop-opacity="1" stop-color="rgb(66.548157%, 85.27832%, 98.974609%)" offset="0.414063"/><stop stop-opacity="1" stop-color="rgb(66.235352%, 85.140991%, 98.965454%)" offset="0.417969"/><stop stop-opacity="1" stop-color="rgb(65.922546%, 85.003662%, 98.956299%)" offset="0.421875"/><stop stop-opacity="1" stop-color="rgb(65.609741%, 84.866333%, 98.945618%)" offset="0.425781"/><stop stop-opacity="1" stop-color="rgb(65.298462%, 84.729004%, 98.936462%)" offset="0.429688"/><stop stop-opacity="1" stop-color="rgb(64.985657%, 84.591675%, 98.927307%)" offset="0.433594"/><stop stop-opacity="1" stop-color="rgb(64.672852%, 84.454346%, 98.918152%)" offset="0.4375"/><stop stop-opacity="1" stop-color="rgb(64.360046%, 84.315491%, 98.907471%)" offset="0.441406"/><stop stop-opacity="1" stop-color="rgb(64.047241%, 84.178162%, 98.898315%)" offset="0.445312"/><stop stop-opacity="1" stop-color="rgb(63.734436%, 84.040833%, 98.88916%)" offset="0.449219"/><stop stop-opacity="1" stop-color="rgb(63.421631%, 83.903503%, 98.880005%)" offset="0.453125"/><stop stop-opacity="1" stop-color="rgb(63.108826%, 83.766174%, 98.869324%)" offset="0.457031"/><stop stop-opacity="1" stop-color="rgb(62.797546%, 83.628845%, 98.860168%)" offset="0.460938"/><stop stop-opacity="1" stop-color="rgb(62.484741%, 83.48999%, 98.851013%)" offset="0.464844"/><stop stop-opacity="1" stop-color="rgb(62.171936%, 83.352661%, 98.841858%)" offset="0.46875"/><stop stop-opacity="1" stop-color="rgb(61.859131%, 83.215332%, 98.831177%)" offset="0.472656"/><stop stop-opacity="1" stop-color="rgb(61.546326%, 83.078003%, 98.822021%)" offset="0.476563"/><stop stop-opacity="1" stop-color="rgb(61.233521%, 82.940674%, 98.812866%)" offset="0.480469"/><stop stop-opacity="1" stop-color="rgb(60.922241%, 82.803345%, 98.803711%)" offset="0.484375"/><stop stop-opacity="1" stop-color="rgb(60.609436%, 82.666016%, 98.79303%)" offset="0.488281"/><stop stop-opacity="1" stop-color="rgb(60.296631%, 82.528687%, 98.783875%)" offset="0.492188"/><stop stop-opacity="1" stop-color="rgb(59.983826%, 82.389832%, 98.773193%)" offset="0.496094"/><stop stop-opacity="1" stop-color="rgb(59.671021%, 82.252502%, 98.764038%)" offset="0.5"/><stop stop-opacity="1" stop-color="rgb(59.358215%, 82.115173%, 98.754883%)" offset="0.503906"/><stop stop-opacity="1" stop-color="rgb(59.04541%, 81.977844%, 98.745728%)" offset="0.507812"/><stop stop-opacity="1" stop-color="rgb(58.732605%, 81.840515%, 98.735046%)" offset="0.511719"/><stop stop-opacity="1" stop-color="rgb(58.421326%, 81.703186%, 98.725891%)" offset="0.515625"/><stop stop-opacity="1" stop-color="rgb(58.108521%, 81.564331%, 98.716736%)" offset="0.519531"/><stop stop-opacity="1" stop-color="rgb(57.795715%, 81.427002%, 98.707581%)" offset="0.523438"/><stop stop-opacity="1" stop-color="rgb(57.48291%, 81.289673%, 98.696899%)" offset="0.527344"/><stop stop-opacity="1" stop-color="rgb(57.170105%, 81.152344%, 98.687744%)" offset="0.53125"/><stop stop-opacity="1" stop-color="rgb(56.8573%, 81.015015%, 98.678589%)" offset="0.535156"/><stop stop-opacity="1" stop-color="rgb(56.546021%, 80.877686%, 98.669434%)" offset="0.539062"/><stop stop-opacity="1" stop-color="rgb(56.233215%, 80.738831%, 98.658752%)" offset="0.542969"/><stop stop-opacity="1" stop-color="rgb(55.92041%, 80.601501%, 98.649597%)" offset="0.546875"/><stop stop-opacity="1" stop-color="rgb(55.607605%, 80.464172%, 98.640442%)" offset="0.550781"/><stop stop-opacity="1" stop-color="rgb(55.2948%, 80.326843%, 98.631287%)" offset="0.554688"/><stop stop-opacity="1" stop-color="rgb(54.981995%, 80.189514%, 98.620605%)" offset="0.558594"/><stop stop-opacity="1" stop-color="rgb(54.669189%, 80.052185%, 98.61145%)" offset="0.5625"/><stop stop-opacity="1" stop-color="rgb(54.356384%, 79.914856%, 98.602295%)" offset="0.566406"/><stop stop-opacity="1" stop-color="rgb(54.045105%, 79.777527%, 98.59314%)" offset="0.570312"/><stop stop-opacity="1" stop-color="rgb(53.7323%, 79.638672%, 98.582458%)" offset="0.574219"/><stop stop-opacity="1" stop-color="rgb(53.419495%, 79.501343%, 98.573303%)" offset="0.578125"/><stop stop-opacity="1" stop-color="rgb(53.106689%, 79.364014%, 98.562622%)" offset="0.582031"/><stop stop-opacity="1" stop-color="rgb(52.793884%, 79.226685%, 98.553467%)" offset="0.585938"/><stop stop-opacity="1" stop-color="rgb(52.481079%, 79.089355%, 98.544312%)" offset="0.589844"/><stop stop-opacity="1" stop-color="rgb(52.1698%, 78.952026%, 98.535156%)" offset="0.59375"/><stop stop-opacity="1" stop-color="rgb(51.856995%, 78.813171%, 98.524475%)" offset="0.597656"/><stop stop-opacity="1" stop-color="rgb(51.544189%, 78.675842%, 98.51532%)" offset="0.601563"/><stop stop-opacity="1" stop-color="rgb(51.231384%, 78.538513%, 98.506165%)" offset="0.605469"/><stop stop-opacity="1" stop-color="rgb(50.918579%, 78.401184%, 98.497009%)" offset="0.609375"/><stop stop-opacity="1" stop-color="rgb(50.605774%, 78.263855%, 98.486328%)" offset="0.613281"/><stop stop-opacity="1" stop-color="rgb(50.292969%, 78.126526%, 98.477173%)" offset="0.617188"/><stop stop-opacity="1" stop-color="rgb(49.980164%, 77.987671%, 98.468018%)" offset="0.621094"/><stop stop-opacity="1" stop-color="rgb(49.668884%, 77.850342%, 98.458862%)" offset="0.625"/><stop stop-opacity="1" stop-color="rgb(49.356079%, 77.713013%, 98.448181%)" offset="0.628906"/><stop stop-opacity="1" stop-color="rgb(49.043274%, 77.575684%, 98.439026%)" offset="0.632812"/><stop stop-opacity="1" stop-color="rgb(48.730469%, 77.438354%, 98.429871%)" offset="0.636719"/><stop stop-opacity="1" stop-color="rgb(48.417664%, 77.301025%, 98.420715%)" offset="0.640625"/><stop stop-opacity="1" stop-color="rgb(48.104858%, 77.163696%, 98.410034%)" offset="0.644531"/><stop stop-opacity="1" stop-color="rgb(47.793579%, 77.026367%, 98.400879%)" offset="0.648438"/><stop stop-opacity="1" stop-color="rgb(47.480774%, 76.887512%, 98.391724%)" offset="0.652344"/><stop stop-opacity="1" stop-color="rgb(47.167969%, 76.750183%, 98.382568%)" offset="0.65625"/><stop stop-opacity="1" stop-color="rgb(46.855164%, 76.612854%, 98.371887%)" offset="0.660156"/><stop stop-opacity="1" stop-color="rgb(46.542358%, 76.475525%, 98.362732%)" offset="0.664062"/><stop stop-opacity="1" stop-color="rgb(46.229553%, 76.338196%, 98.353577%)" offset="0.667969"/><stop stop-opacity="1" stop-color="rgb(45.916748%, 76.200867%, 98.344421%)" offset="0.671875"/><stop stop-opacity="1" stop-color="rgb(45.603943%, 76.062012%, 98.33374%)" offset="0.675781"/><stop stop-opacity="1" stop-color="rgb(45.292664%, 75.924683%, 98.324585%)" offset="0.679688"/><stop stop-opacity="1" stop-color="rgb(44.979858%, 75.787354%, 98.313904%)" offset="0.683594"/><stop stop-opacity="1" stop-color="rgb(44.667053%, 75.650024%, 98.304749%)" offset="0.6875"/><stop stop-opacity="1" stop-color="rgb(44.354248%, 75.512695%, 98.295593%)" offset="0.691406"/><stop stop-opacity="1" stop-color="rgb(44.041443%, 75.375366%, 98.286438%)" offset="0.695312"/><stop stop-opacity="1" stop-color="rgb(43.728638%, 75.238037%, 98.275757%)" offset="0.699219"/><stop stop-opacity="1" stop-color="rgb(43.417358%, 75.100708%, 98.266602%)" offset="0.703125"/><stop stop-opacity="1" stop-color="rgb(43.104553%, 74.961853%, 98.257446%)" offset="0.707031"/><stop stop-opacity="1" stop-color="rgb(42.791748%, 74.824524%, 98.248291%)" offset="0.710937"/><stop stop-opacity="1" stop-color="rgb(42.478943%, 74.687195%, 98.23761%)" offset="0.714844"/><stop stop-opacity="1" stop-color="rgb(42.166138%, 74.549866%, 98.228455%)" offset="0.71875"/><stop stop-opacity="1" stop-color="rgb(41.853333%, 74.412537%, 98.219299%)" offset="0.722656"/><stop stop-opacity="1" stop-color="rgb(41.540527%, 74.275208%, 98.210144%)" offset="0.726562"/><stop stop-opacity="1" stop-color="rgb(41.227722%, 74.136353%, 98.199463%)" offset="0.730469"/><stop stop-opacity="1" stop-color="rgb(40.916443%, 73.999023%, 98.190308%)" offset="0.734375"/><stop stop-opacity="1" stop-color="rgb(40.603638%, 73.861694%, 98.181152%)" offset="0.738281"/><stop stop-opacity="1" stop-color="rgb(40.290833%, 73.724365%, 98.171997%)" offset="0.742188"/><stop stop-opacity="1" stop-color="rgb(39.978027%, 73.587036%, 98.161316%)" offset="0.746094"/><stop stop-opacity="1" stop-color="rgb(39.665222%, 73.449707%, 98.152161%)" offset="0.75"/><stop stop-opacity="1" stop-color="rgb(39.352417%, 73.310852%, 98.143005%)" offset="0.753906"/><stop stop-opacity="1" stop-color="rgb(39.041138%, 73.173523%, 98.13385%)" offset="0.757812"/><stop stop-opacity="1" stop-color="rgb(38.728333%, 73.036194%, 98.123169%)" offset="0.761719"/><stop stop-opacity="1" stop-color="rgb(38.415527%, 72.898865%, 98.114014%)" offset="0.765625"/><stop stop-opacity="1" stop-color="rgb(38.102722%, 72.761536%, 98.103333%)" offset="0.769531"/><stop stop-opacity="1" stop-color="rgb(37.789917%, 72.624207%, 98.094177%)" offset="0.773438"/><stop stop-opacity="1" stop-color="rgb(37.477112%, 72.486877%, 98.085022%)" offset="0.777344"/><stop stop-opacity="1" stop-color="rgb(37.164307%, 72.349548%, 98.075867%)" offset="0.78125"/><stop stop-opacity="1" stop-color="rgb(36.851501%, 72.210693%, 98.065186%)" offset="0.785156"/><stop stop-opacity="1" stop-color="rgb(36.540222%, 72.073364%, 98.05603%)" offset="0.789063"/><stop stop-opacity="1" stop-color="rgb(36.227417%, 71.936035%, 98.046875%)" offset="0.792969"/><stop stop-opacity="1" stop-color="rgb(35.914612%, 71.798706%, 98.03772%)" offset="0.796875"/><stop stop-opacity="1" stop-color="rgb(35.601807%, 71.661377%, 98.027039%)" offset="0.800781"/><stop stop-opacity="1" stop-color="rgb(35.289001%, 71.524048%, 98.017883%)" offset="0.804688"/><stop stop-opacity="1" stop-color="rgb(34.976196%, 71.385193%, 98.008728%)" offset="0.808594"/><stop stop-opacity="1" stop-color="rgb(34.664917%, 71.247864%, 97.999573%)" offset="0.8125"/><stop stop-opacity="1" stop-color="rgb(34.352112%, 71.110535%, 97.988892%)" offset="0.816406"/><stop stop-opacity="1" stop-color="rgb(34.039307%, 70.973206%, 97.979736%)" offset="0.820312"/><stop stop-opacity="1" stop-color="rgb(33.726501%, 70.835876%, 97.970581%)" offset="0.824219"/><stop stop-opacity="1" stop-color="rgb(33.413696%, 70.698547%, 97.961426%)" offset="0.828125"/><stop stop-opacity="1" stop-color="rgb(33.100891%, 70.561218%, 97.950745%)" offset="0.832031"/><stop stop-opacity="1" stop-color="rgb(32.788086%, 70.423889%, 97.941589%)" offset="0.835938"/><stop stop-opacity="1" stop-color="rgb(32.475281%, 70.285034%, 97.932434%)" offset="0.839844"/><stop stop-opacity="1" stop-color="rgb(32.164001%, 70.147705%, 97.923279%)" offset="0.84375"/><stop stop-opacity="1" stop-color="rgb(31.851196%, 70.010376%, 97.912598%)" offset="0.847656"/><stop stop-opacity="1" stop-color="rgb(31.538391%, 69.873047%, 97.903442%)" offset="0.851562"/><stop stop-opacity="1" stop-color="rgb(31.225586%, 69.735718%, 97.892761%)" offset="0.855469"/><stop stop-opacity="1" stop-color="rgb(30.912781%, 69.598389%, 97.883606%)" offset="0.859375"/><stop stop-opacity="1" stop-color="rgb(30.599976%, 69.459534%, 97.874451%)" offset="0.863281"/><stop stop-opacity="1" stop-color="rgb(30.288696%, 69.322205%, 97.865295%)" offset="0.867188"/><stop stop-opacity="1" stop-color="rgb(29.975891%, 69.184875%, 97.854614%)" offset="0.871094"/><stop stop-opacity="1" stop-color="rgb(29.663086%, 69.047546%, 97.845459%)" offset="0.875"/><stop stop-opacity="1" stop-color="rgb(29.350281%, 68.910217%, 97.836304%)" offset="0.878906"/><stop stop-opacity="1" stop-color="rgb(29.037476%, 68.772888%, 97.827148%)" offset="0.882812"/><stop stop-opacity="1" stop-color="rgb(28.72467%, 68.634033%, 97.816467%)" offset="0.886719"/><stop stop-opacity="1" stop-color="rgb(28.411865%, 68.496704%, 97.807312%)" offset="0.890625"/><stop stop-opacity="1" stop-color="rgb(28.09906%, 68.359375%, 97.798157%)" offset="0.894531"/><stop stop-opacity="1" stop-color="rgb(27.787781%, 68.222046%, 97.789001%)" offset="0.898437"/><stop stop-opacity="1" stop-color="rgb(27.474976%, 68.084717%, 97.77832%)" offset="0.902344"/><stop stop-opacity="1" stop-color="rgb(27.16217%, 67.947388%, 97.769165%)" offset="0.90625"/><stop stop-opacity="1" stop-color="rgb(26.849365%, 67.810059%, 97.76001%)" offset="0.910156"/><stop stop-opacity="1" stop-color="rgb(26.53656%, 67.672729%, 97.750854%)" offset="0.914062"/><stop stop-opacity="1" stop-color="rgb(26.223755%, 67.533875%, 97.740173%)" offset="0.917969"/><stop stop-opacity="1" stop-color="rgb(25.912476%, 67.396545%, 97.731018%)" offset="0.921875"/><stop stop-opacity="1" stop-color="rgb(25.59967%, 67.259216%, 97.721863%)" offset="0.925781"/><stop stop-opacity="1" stop-color="rgb(25.286865%, 67.121887%, 97.712708%)" offset="0.929688"/><stop stop-opacity="1" stop-color="rgb(24.97406%, 66.984558%, 97.702026%)" offset="0.933594"/><stop stop-opacity="1" stop-color="rgb(24.661255%, 66.847229%, 97.692871%)" offset="0.9375"/><stop stop-opacity="1" stop-color="rgb(24.34845%, 66.708374%, 97.683716%)" offset="0.941406"/><stop stop-opacity="1" stop-color="rgb(24.035645%, 66.571045%, 97.674561%)" offset="0.945312"/><stop stop-opacity="1" stop-color="rgb(23.722839%, 66.433716%, 97.663879%)" offset="0.949219"/><stop stop-opacity="1" stop-color="rgb(23.41156%, 66.296387%, 97.654724%)" offset="0.953125"/><stop stop-opacity="1" stop-color="rgb(23.098755%, 66.159058%, 97.644043%)" offset="0.957031"/><stop stop-opacity="1" stop-color="rgb(22.78595%, 66.021729%, 97.634888%)" offset="0.960938"/><stop stop-opacity="1" stop-color="rgb(22.473145%, 65.882874%, 97.625732%)" offset="0.964844"/><stop stop-opacity="1" stop-color="rgb(22.160339%, 65.745544%, 97.616577%)" offset="0.96875"/><stop stop-opacity="1" stop-color="rgb(21.879578%, 65.621948%, 97.607422%)" offset="0.972656"/><stop stop-opacity="1" stop-color="rgb(21.598816%, 65.499878%, 97.599792%)" offset="0.976562"/><stop stop-opacity="1" stop-color="rgb(21.598816%, 65.499878%, 97.599792%)" offset="0.984375"/><stop stop-opacity="1" stop-color="rgb(21.598816%, 65.499878%, 97.599792%)" offset="1"/></linearGradient><clipPath id="72cf449bb4"><path d="M 16 6.296875 L 25 6.296875 L 25 14 L 16 14 Z M 16 6.296875 " clip-rule="nonzero"/></clipPath><clipPath id="1d40c821a8"><path d="M 45 24 L 53.507812 24 L 53.507812 27 L 45 27 Z M 45 24 " clip-rule="nonzero"/></clipPath></defs><g clip-path="url(#d51385b464)"><path fill="#15659b" d="M 25.28125 46.320312 L 11.722656 46.769531 C 10.957031 46.796875 10.175781 46.15625 9.917969 45.296875 L 0.730469 14.792969 C 0.5 14.023438 1.054688 13.328125 1.851562 13.378906 L 13.316406 14.125 C 13.957031 14.164062 14.558594 14.605469 14.792969 15.203125 L 26.222656 44.46875 C 26.597656 45.421875 26.15625 46.292969 25.28125 46.320312 Z M 25.28125 46.320312 " fill-opacity="1" fill-rule="nonzero"/></g><g clip-path="url(#17534f7bf1)"><path fill="#1b75bc" d="M 26.4375 46.296875 L 12.824219 46.75 C 12.054688 46.777344 11.269531 46.132812 11.003906 45.273438 L 1.644531 14.714844 C 1.40625 13.949219 1.960938 13.25 2.761719 13.300781 L 14.277344 14.042969 C 14.917969 14.085938 15.527344 14.527344 15.761719 15.125 L 27.378906 44.441406 C 27.757812 45.398438 27.320312 46.269531 26.4375 46.296875 Z M 26.4375 46.296875 " fill-opacity="1" fill-rule="nonzero"/></g><g clip-path="url(#0bf75e66d5)"><g clip-path="url(#c7ac6d6b92)"><path fill="url(#26678b3a34)" d="M 25.832031 15.230469 L 26.402344 44.773438 L 3.695312 45.214844 L 3.121094 15.675781 Z M 25.832031 15.230469 " fill-rule="nonzero"/></g></g><path fill="#3ea0c6" d="M 15.96875 30.664062 C 16.25 30.992188 16.519531 31.324219 16.769531 31.660156 C 17.023438 32 17.253906 32.339844 17.46875 32.679688 C 17.679688 33.023438 17.871094 33.355469 18.035156 33.6875 C 18.199219 34.015625 18.339844 34.332031 18.453125 34.636719 C 18.5625 34.945312 18.644531 35.230469 18.699219 35.5 C 18.753906 35.769531 18.777344 36.015625 18.773438 36.238281 C 18.765625 36.460938 18.730469 36.65625 18.664062 36.824219 C 18.597656 36.992188 18.503906 37.132812 18.382812 37.238281 C 18.257812 37.34375 18.109375 37.417969 17.933594 37.460938 C 17.757812 37.503906 17.5625 37.511719 17.339844 37.484375 C 17.117188 37.460938 16.878906 37.402344 16.621094 37.3125 C 16.359375 37.21875 16.089844 37.097656 15.804688 36.945312 C 15.515625 36.789062 15.222656 36.609375 14.921875 36.398438 C 14.617188 36.1875 14.3125 35.953125 14.007812 35.695312 C 13.699219 35.433594 13.394531 35.15625 13.097656 34.859375 C 12.796875 34.5625 12.503906 34.25 12.222656 33.925781 C 11.941406 33.601562 11.675781 33.269531 11.425781 32.929688 C 11.171875 32.589844 10.941406 32.25 10.726562 31.910156 C 10.515625 31.570312 10.324219 31.234375 10.160156 30.90625 C 9.992188 30.578125 9.855469 30.257812 9.742188 29.953125 C 9.628906 29.648438 9.546875 29.363281 9.492188 29.09375 C 9.441406 28.824219 9.414062 28.578125 9.421875 28.355469 C 9.425781 28.128906 9.464844 27.933594 9.527344 27.765625 C 9.59375 27.597656 9.6875 27.460938 9.8125 27.355469 C 9.933594 27.246094 10.085938 27.171875 10.257812 27.128906 C 10.433594 27.089844 10.632812 27.082031 10.855469 27.105469 C 11.074219 27.132812 11.316406 27.191406 11.574219 27.28125 C 11.832031 27.371094 12.105469 27.496094 12.390625 27.648438 C 12.675781 27.800781 12.972656 27.984375 13.273438 28.195312 C 13.574219 28.40625 13.878906 28.640625 14.1875 28.898438 C 14.496094 29.15625 14.796875 29.4375 15.097656 29.734375 C 15.398438 30.03125 15.6875 30.339844 15.96875 30.664062 Z M 15.96875 30.664062 " fill-opacity="1" fill-rule="nonzero"/><path fill="#662d91" d="M 8.691406 23.804688 C 8.222656 26.222656 10.785156 26.6875 10.785156 26.6875 C 10.785156 26.6875 10.050781 28.828125 10.003906 29.039062 C 10.480469 30.097656 11.167969 31.378906 12.164062 32.714844 C 13.378906 34.351562 14.660156 35.539062 15.695312 36.359375 C 16 36.628906 16.519531 37.003906 17.199219 37.027344 C 17.394531 37.03125 17.601562 37.011719 17.824219 36.957031 C 17.976562 36.917969 21.132812 29.484375 22.445312 25.785156 C 23.207031 26.398438 24.296875 27.253906 25.894531 26.679688 C 27.851562 25.976562 27.933594 23.472656 29.449219 20.246094 C 29.503906 20.128906 29.578125 19.175781 29.289062 18.953125 C 28.71875 18.511719 28.117188 18.121094 27.152344 18.503906 C 26.972656 18.578125 26.855469 18.957031 26.070312 20.277344 C 25.117188 21.894531 24.960938 22.820312 24.703125 22.796875 C 24.226562 22.753906 24.847656 19.601562 23.15625 17.734375 C 22.328125 16.820312 21.210938 16.5 20.503906 16.371094 C 19.917969 16.160156 19.425781 16.039062 19.085938 15.964844 C 19.085938 15.964844 18.390625 15.8125 16.25 15.617188 C 16.25 15.617188 15.296875 15.476562 13.152344 15.765625 C 11.003906 16.050781 9.15625 21.382812 8.691406 23.804688 Z M 8.691406 23.804688 " fill-opacity="1" fill-rule="nonzero"/><path fill="#f9c4c8" d="M 20.402344 15.417969 C 20.3125 15.816406 20.21875 16.214844 20.128906 16.617188 L 20.125 16.617188 C 20.097656 16.742188 20.070312 16.867188 20.039062 16.996094 C 20.039062 16.996094 19.226562 17.566406 18.308594 17.332031 C 17.386719 17.097656 17.132812 16.027344 17.125 15.875 C 17.121094 15.722656 18.058594 13.652344 18.058594 13.652344 C 18.765625 14.183594 19.472656 14.71875 20.179688 15.25 C 20.253906 15.304688 20.328125 15.363281 20.402344 15.417969 Z M 20.402344 15.417969 " fill-opacity="1" fill-rule="nonzero"/><path fill="#e5a5ad" d="M 20.402344 15.417969 C 20.3125 15.816406 20.21875 16.214844 20.128906 16.617188 L 20.125 16.617188 C 20.125 16.617188 19.976562 16.539062 19.273438 15.996094 C 18.574219 15.453125 18.457031 14.347656 18.457031 14.347656 L 20.179688 15.25 C 20.253906 15.304688 20.328125 15.363281 20.402344 15.417969 Z M 20.402344 15.417969 " fill-opacity="1" fill-rule="nonzero"/><path fill="#f9c4c8" d="M 23.644531 10.421875 C 23.605469 10.59375 23.535156 10.765625 23.46875 10.90625 C 23.375 11.097656 23.285156 11.230469 23.285156 11.230469 C 23.285156 11.230469 22.566406 13.675781 22.375 14.21875 C 22.222656 14.648438 21.089844 16.199219 19.742188 15.460938 C 18.398438 14.71875 17.574219 13.738281 17.507812 13.0625 C 17.4375 12.390625 17.78125 9.996094 18.324219 9.40625 C 18.867188 8.8125 23.035156 9.28125 23.507812 9.742188 C 23.6875 9.917969 23.699219 10.171875 23.644531 10.421875 Z M 23.644531 10.421875 " fill-opacity="1" fill-rule="nonzero"/><path fill="#e5a5ad" d="M 23.644531 10.421875 C 23.605469 10.59375 23.535156 10.765625 23.46875 10.90625 C 23.167969 10.886719 22.871094 10.816406 22.578125 10.742188 C 22.089844 10.613281 21.609375 10.46875 21.136719 10.304688 C 20.613281 10.125 20.085938 9.921875 19.535156 9.941406 C 19.375 9.949219 19.210938 9.976562 19.085938 10.074219 C 18.96875 10.167969 18.90625 10.308594 18.851562 10.445312 C 18.691406 10.832031 18.5625 11.230469 18.464844 11.636719 L 18.484375 11.355469 C 18.476562 10.980469 18.5 10.609375 18.546875 10.242188 C 18.574219 10.039062 18.613281 9.828125 18.742188 9.671875 C 18.820312 9.578125 18.921875 9.515625 19.027344 9.460938 C 19.414062 9.265625 19.855469 9.210938 20.285156 9.242188 C 20.714844 9.269531 21.136719 9.382812 21.546875 9.503906 C 22.242188 9.703125 22.933594 9.941406 23.539062 10.335938 C 23.574219 10.359375 23.613281 10.386719 23.644531 10.421875 Z M 23.644531 10.421875 " fill-opacity="1" fill-rule="nonzero"/><path fill="#4c2072" d="M 17.03125 26.320312 L 12.28125 24.195312 L 13.679688 19.957031 L 13.140625 23.96875 Z M 17.03125 26.320312 " fill-opacity="1" fill-rule="nonzero"/><path fill="#e6e7e8" d="M 10.785156 26.6875 L 16.476562 28.808594 L 10.082031 28.773438 Z M 10.785156 26.6875 " fill-opacity="1" fill-rule="nonzero"/><path fill="#f9c4c8" d="M 27.378906 18.429688 L 27.585938 15.625 C 27.585938 15.625 27.996094 14.636719 28.507812 14.632812 C 29.015625 14.625 28.429688 15.503906 28.429688 15.503906 C 28.429688 15.503906 28.152344 16.003906 28.316406 16.421875 C 28.484375 16.839844 28.910156 18.203125 29.386719 18.257812 C 29.863281 18.3125 29.289062 18.953125 29.289062 18.953125 Z M 27.378906 18.429688 " fill-opacity="1" fill-rule="nonzero"/><g clip-path="url(#72cf449bb4)"><path fill="#3c2415" d="M 24.378906 9.179688 C 24.449219 8.625 24.28125 8.058594 23.996094 7.578125 C 23.707031 7.09375 23.304688 6.695312 22.878906 6.328125 C 23.074219 6.625 23.15625 6.988281 23.109375 7.339844 C 22.207031 6.664062 21.046875 6.472656 19.933594 6.296875 C 20.335938 6.449219 20.683594 6.75 20.894531 7.125 C 20.132812 6.785156 19.246094 6.960938 18.453125 7.214844 C 18.214844 7.292969 17.972656 7.378906 17.769531 7.527344 C 17.550781 7.6875 17.386719 7.914062 17.238281 8.144531 C 16.570312 9.167969 16.292969 9.714844 16.253906 10.183594 C 16.25 10.230469 16.308594 10.699219 16.429688 11.636719 C 16.488281 12.09375 16.511719 12.25 16.601562 12.441406 C 16.828125 12.925781 17.269531 13.183594 17.5625 13.316406 C 17.550781 12.964844 17.570312 12.511719 17.683594 12 C 17.769531 11.59375 17.746094 11.859375 17.867188 11.589844 C 18.148438 11.664062 18.324219 11.699219 18.472656 11.640625 C 18.570312 11.179688 18.667969 10.71875 18.765625 10.261719 C 18.816406 10.019531 18.882812 9.757812 19.089844 9.625 C 19.273438 9.511719 19.507812 9.539062 19.71875 9.574219 C 20.445312 9.6875 21.167969 9.835938 21.882812 10.007812 C 22.199219 10.085938 22.515625 10.167969 22.804688 10.324219 C 23.199219 10.535156 23.4375 11.027344 23.777344 10.566406 C 24.074219 10.167969 24.316406 9.675781 24.378906 9.179688 Z M 24.378906 9.179688 " fill-opacity="1" fill-rule="nonzero"/></g><path fill="#f9c4c8" d="M 17.941406 10.660156 C 18.101562 10.695312 18.222656 10.8125 18.300781 11.007812 C 18.375 11.203125 18.386719 11.421875 18.335938 11.660156 C 18.28125 11.902344 18.175781 12.09375 18.023438 12.238281 C 17.871094 12.382812 17.714844 12.433594 17.554688 12.398438 C 17.390625 12.363281 17.269531 12.246094 17.195312 12.050781 C 17.117188 11.855469 17.105469 11.636719 17.160156 11.398438 C 17.214844 11.15625 17.316406 10.964844 17.46875 10.820312 C 17.621094 10.675781 17.777344 10.625 17.941406 10.660156 Z M 17.941406 10.660156 " fill-opacity="1" fill-rule="nonzero"/><path fill="#f1f2f2" d="M 21.886719 13.371094 L 19.652344 12.644531 C 19.652344 12.644531 19.722656 16.0625 21.886719 13.371094 Z M 21.886719 13.371094 " fill-opacity="1" fill-rule="nonzero"/><path fill="#4c2072" d="M 17.199219 37.027344 C 17.394531 37.03125 17.601562 37.011719 17.824219 36.957031 C 17.976562 36.917969 21.132812 29.484375 22.445312 25.785156 C 22.53125 25.445312 23.179688 21.078125 22.582031 20.410156 C 22.582031 20.410156 21.832031 26.535156 21.597656 27.203125 C 21.386719 27.808594 17.886719 35.511719 17.199219 37.027344 Z M 17.199219 37.027344 " fill-opacity="1" fill-rule="nonzero"/><path fill="#e6e7e8" d="M 17.03125 26.320312 L 17.265625 26.875 C 17.265625 26.875 16.460938 26.644531 16.464844 27.859375 L 16.519531 28.21875 L 16.460938 28.875 C 16.460938 28.875 16.117188 28.402344 16.242188 27.5625 C 16.371094 26.726562 17.03125 26.320312 17.03125 26.320312 Z M 17.03125 26.320312 " fill-opacity="1" fill-rule="nonzero"/><path fill="#e5a5ad" d="M 17.605469 11.132812 C 17.554688 11.222656 17.539062 11.332031 17.519531 11.433594 C 17.511719 11.492188 17.503906 11.550781 17.492188 11.605469 C 17.476562 11.71875 17.460938 11.839844 17.519531 11.933594 C 17.554688 11.988281 17.617188 12.027344 17.675781 12.011719 C 17.761719 11.992188 17.792969 11.894531 17.8125 11.8125 C 17.78125 11.757812 17.75 11.695312 17.757812 11.636719 C 17.765625 11.574219 17.835938 11.515625 17.890625 11.546875 C 17.902344 11.554688 17.917969 11.566406 17.929688 11.5625 C 17.941406 11.558594 17.949219 11.546875 17.953125 11.539062 C 18.027344 11.414062 18.144531 11.207031 18.039062 11.070312 C 17.910156 10.90625 17.699219 10.96875 17.605469 11.132812 Z M 17.605469 11.132812 " fill-opacity="1" fill-rule="nonzero"/><path fill="#e6e6e6" d="M 35.601562 39.464844 L 37.746094 36.222656 L 33.589844 33.460938 L 31.457031 36.707031 Z M 35.601562 39.464844 " fill-opacity="1" fill-rule="nonzero"/><path fill="#6ea8f4" d="M 20.742188 20.601562 C 18.460938 24.046875 19.65625 28.863281 23.410156 31.359375 L 31.457031 36.707031 L 33.589844 33.460938 L 25.195312 27.878906 C 23.65625 26.855469 23.167969 24.886719 24.101562 23.476562 L 25.867188 20.808594 L 22.089844 18.566406 Z M 20.742188 20.601562 " fill-opacity="1" fill-rule="nonzero"/><path fill="#e62fa8" d="M 33.636719 15.921875 C 29.878906 13.425781 24.984375 14.191406 22.703125 17.636719 L 22.089844 18.566406 L 25.867188 20.808594 L 26.609375 19.6875 C 27.542969 18.277344 29.546875 17.964844 31.085938 18.984375 L 39.539062 24.605469 L 41.601562 21.21875 Z M 33.636719 15.921875 " fill-opacity="1" fill-rule="nonzero"/><path fill="#e6e6e6" d="M 45.824219 24.023438 L 41.601562 21.21875 L 39.539062 24.605469 L 43.636719 27.332031 Z M 45.824219 24.023438 " fill-opacity="1" fill-rule="nonzero"/><path fill="#f9c4c8" d="M 27.660156 15.609375 C 27.847656 15.601562 27.996094 15.441406 27.988281 15.25 L 27.953125 14.410156 C 27.945312 14.222656 27.78125 14.074219 27.589844 14.082031 C 27.402344 14.089844 27.253906 14.25 27.261719 14.441406 L 27.296875 15.28125 C 27.304688 15.472656 27.46875 15.621094 27.660156 15.609375 Z M 27.660156 15.609375 " fill-opacity="1" fill-rule="nonzero"/><path fill="#f9c4c8" d="M 28.386719 15.578125 C 28.578125 15.570312 28.726562 15.410156 28.71875 15.21875 L 28.679688 14.378906 C 28.671875 14.1875 28.511719 14.039062 28.320312 14.050781 C 28.128906 14.058594 27.980469 14.21875 27.988281 14.410156 L 28.027344 15.246094 C 28.035156 15.4375 28.195312 15.585938 28.386719 15.578125 Z M 28.386719 15.578125 " fill-opacity="1" fill-rule="nonzero"/><path fill="#f9c4c8" d="M 29.097656 15.609375 C 29.289062 15.601562 29.4375 15.4375 29.429688 15.246094 L 29.390625 14.410156 C 29.382812 14.21875 29.222656 14.070312 29.03125 14.078125 C 28.839844 14.085938 28.691406 14.25 28.703125 14.441406 L 28.738281 15.277344 C 28.746094 15.46875 28.90625 15.617188 29.097656 15.609375 Z M 29.097656 15.609375 " fill-opacity="1" fill-rule="nonzero"/><path fill="#f9c4c8" d="M 29.84375 15.625 C 30.035156 15.613281 30.179688 15.453125 30.171875 15.261719 L 30.136719 14.425781 C 30.128906 14.234375 29.964844 14.085938 29.777344 14.09375 C 29.585938 14.101562 29.4375 14.265625 29.445312 14.453125 L 29.484375 15.292969 C 29.492188 15.484375 29.652344 15.632812 29.84375 15.625 Z M 29.84375 15.625 " fill-opacity="1" fill-rule="nonzero"/><path fill="#f2aab2" d="M 16.75 26.640625 L 17.863281 27.179688 L 19.699219 27.59375 C 19.699219 27.59375 19.847656 28.003906 20.921875 28.355469 C 21.996094 28.703125 22.726562 28.410156 22.480469 28.863281 C 22.234375 29.316406 20.777344 28.882812 20.777344 28.882812 C 20.777344 28.882812 21.179688 29.207031 21.746094 29.332031 C 22.3125 29.460938 22.703125 29.167969 22.574219 29.664062 C 22.445312 30.160156 20.304688 29.40625 20.304688 29.40625 C 20.304688 29.40625 21.621094 29.722656 21.402344 29.980469 C 21.183594 30.238281 19.941406 29.742188 19.941406 29.742188 C 19.941406 29.742188 21.183594 30.238281 20.742188 30.355469 C 20.300781 30.472656 19.171875 30.203125 18.714844 29.738281 C 18.261719 29.273438 18.285156 29.082031 17.605469 28.894531 C 16.925781 28.703125 15.765625 28.410156 15.765625 28.410156 C 15.765625 28.410156 15.277344 26.511719 16.75 26.640625 Z M 16.75 26.640625 " fill-opacity="1" fill-rule="nonzero"/><path fill="#b3b3b3" d="M 44.898438 23.40625 L 42.730469 26.730469 L 43.636719 27.332031 L 45.824219 24.023438 Z M 44.898438 23.40625 " fill-opacity="1" fill-rule="nonzero"/><path fill="#b3b3b3" d="M 36.816406 35.625 L 34.703125 38.867188 L 35.601562 39.464844 L 37.742188 36.242188 Z M 36.816406 35.625 " fill-opacity="1" fill-rule="nonzero"/><path fill="#fcee21" d="M 45.140625 26.171875 C 45.445312 26.355469 48.960938 27.027344 48.960938 27.027344 L 48.472656 27.996094 L 52.011719 29.390625 L 47.328125 28.210938 L 47.742188 27.59375 Z M 45.140625 26.171875 " fill-opacity="1" fill-rule="nonzero"/><g clip-path="url(#1d40c821a8)"><path fill="#fbb03b" d="M 45.917969 25.609375 C 46.269531 25.660156 49.769531 24.894531 49.769531 24.894531 L 49.699219 25.980469 L 53.5 25.871094 L 48.730469 26.625 L 48.871094 25.894531 Z M 45.917969 25.609375 " fill-opacity="1" fill-rule="nonzero"/></g><path fill="#fbb03b" d="M 44.960938 26.96875 C 45.109375 27.316406 47.714844 30.070312 47.714844 30.070312 L 46.699219 30.597656 L 48.878906 33.988281 L 45.585938 30.078125 L 46.320312 29.804688 Z M 44.960938 26.96875 " fill-opacity="1" fill-rule="nonzero"/><path fill="#fcee21" d="M 36.488281 38.023438 C 36.792969 38.210938 40.308594 38.878906 40.308594 38.878906 L 39.820312 39.851562 L 43.359375 41.246094 L 38.675781 40.0625 L 39.089844 39.449219 Z M 36.488281 38.023438 " fill-opacity="1" fill-rule="nonzero"/><path fill="#fbb03b" d="M 37.265625 37.464844 C 37.617188 37.515625 41.113281 36.75 41.113281 36.75 L 41.046875 37.832031 L 44.847656 37.726562 L 40.078125 38.480469 L 40.21875 37.75 Z M 37.265625 37.464844 " fill-opacity="1" fill-rule="nonzero"/><path fill="#fbb03b" d="M 36.308594 38.824219 C 36.457031 39.171875 39.0625 41.921875 39.0625 41.921875 L 38.042969 42.453125 L 40.226562 45.839844 L 36.933594 41.929688 L 37.667969 41.65625 Z M 36.308594 38.824219 " fill-opacity="1" fill-rule="nonzero"/><path fill="#f2aab2" d="M 19.585938 27.566406 L 20.097656 27.25 L 20.308594 27.75 L 20.015625 27.925781 C 20.015625 27.925781 19.472656 27.855469 19.585938 27.566406 Z M 19.585938 27.566406 " fill-opacity="1" fill-rule="nonzero"/></svg>