<svg xmlns="http://www.w3.org/2000/svg" xmlns:xlink="http://www.w3.org/1999/xlink" width="72" zoomAndPan="magnify" viewBox="0 0 54 54" height="72" preserveAspectRatio="xMidYMid meet" version="1.0"><defs><clipPath id="ce5040490f"><path d="M 8 0.03125 L 51 0.03125 L 51 53.019531 L 8 53.019531 Z M 8 0.03125 " clip-rule="nonzero"/></clipPath><clipPath id="60729d6d11"><path d="M 8 0.03125 L 50 0.03125 L 50 52 L 8 52 Z M 8 0.03125 " clip-rule="nonzero"/></clipPath><clipPath id="9cc60012a6"><path d="M 8 0.03125 L 50 0.03125 L 50 52 L 8 52 Z M 8 0.03125 " clip-rule="nonzero"/></clipPath><clipPath id="d5f0d50f96"><path d="M 0.492188 16 L 7 16 L 7 26 L 0.492188 26 Z M 0.492188 16 " clip-rule="nonzero"/></clipPath><clipPath id="a422ecc899"><path d="M 20 16 L 53.507812 16 L 53.507812 27 L 20 27 Z M 20 16 " clip-rule="nonzero"/></clipPath><clipPath id="1358870723"><path d="M 20.59375 16.050781 L 53.496094 16.050781 L 53.496094 26.703125 L 20.59375 26.703125 Z M 20.59375 16.050781 " clip-rule="nonzero"/></clipPath></defs><g clip-path="url(#ce5040490f)"><path fill="#560c1b" d="M 50.355469 2.453125 C 49.925781 5.117188 42.097656 52.109375 42.082031 52.195312 C 41.988281 52.699219 41.582031 53.050781 41.109375 53.050781 L 11.128906 52.984375 C 10.480469 52.984375 9.859375 52.71875 9.410156 52.25 C 9.160156 51.992188 8.898438 51.710938 8.703125 51.464844 C 8.488281 51.195312 8.433594 50.664062 8.609375 49.65625 L 17.9375 2.382812 C 17.988281 2.101562 18.257812 1.878906 18.542969 1.878906 L 48.574219 0.226562 C 49.570312 0.0351562 50.402344 2.171875 50.355469 2.453125 " fill-opacity="1" fill-rule="nonzero"/></g><g clip-path="url(#60729d6d11)"><path fill="#ffffff" d="M 49.214844 1.175781 C 49.128906 3.273438 44.269531 30.9375 42.09375 44.003906 C 41.882812 45.253906 41.699219 46.367188 41.539062 47.308594 C 41.195312 49.375 40.992188 50.609375 40.988281 50.625 C 40.894531 51.128906 40.488281 51.484375 40.015625 51.480469 L 9.058594 51.414062 C 8.722656 51.414062 8.628906 50.199219 8.628906 50.199219 L 16.613281 1.929688 C 16.875 0.199219 18.082031 0.308594 18.367188 0.308594 L 48.09375 0.226562 C 48.378906 0.226562 49.25 0.273438 49.214844 1.175781 " fill-opacity="1" fill-rule="nonzero"/><path fill="#560c1b" d="M 8.78125 50.203125 C 8.824219 50.714844 8.957031 51.226562 9.0625 51.265625 L 40.015625 51.332031 C 40.421875 51.332031 40.757812 51.03125 40.839844 50.597656 C 40.847656 50.546875 41.074219 49.191406 41.390625 47.28125 C 41.546875 46.34375 41.734375 45.226562 41.941406 43.976562 C 42.636719 39.816406 43.589844 34.25 44.597656 28.351562 C 46.664062 16.277344 49.007812 2.589844 49.0625 1.171875 L 49.214844 1.175781 L 49.0625 1.171875 C 49.074219 0.9375 49.015625 0.761719 48.894531 0.632812 C 48.734375 0.46875 48.460938 0.378906 48.09375 0.378906 L 18.367188 0.460938 L 18.320312 0.460938 C 17.953125 0.449219 16.992188 0.433594 16.761719 1.953125 Z M 40.015625 51.632812 C 40.011719 51.632812 9.058594 51.566406 9.058594 51.566406 C 8.644531 51.5625 8.519531 50.714844 8.480469 50.210938 C 8.480469 50.199219 8.480469 50.1875 8.480469 50.175781 L 16.464844 1.90625 C 16.640625 0.726562 17.269531 0.136719 18.324219 0.15625 L 18.367188 0.15625 L 48.09375 0.0742188 C 48.550781 0.078125 48.894531 0.195312 49.113281 0.425781 C 49.292969 0.613281 49.378906 0.867188 49.363281 1.183594 C 49.308594 2.621094 47.066406 15.730469 44.894531 28.402344 C 43.886719 34.300781 42.933594 39.867188 42.242188 44.027344 C 42.03125 45.277344 41.847656 46.390625 41.691406 47.332031 C 41.164062 50.488281 41.136719 50.644531 41.132812 50.660156 C 41.027344 51.230469 40.566406 51.632812 40.015625 51.632812 " fill-opacity="1" fill-rule="nonzero"/></g><path fill="#f0e3df" d="M 39.386719 36.496094 C 39.695312 36.496094 39.960938 36.269531 40.007812 35.960938 L 43.5625 12.875 C 43.625 12.59375 43.417969 12.328125 43.132812 12.328125 L 20.351562 12.328125 C 19.484375 12.328125 19.375 12.484375 19.328125 12.695312 L 15.777344 35.765625 C 15.71875 36.148438 16.011719 36.496094 16.398438 36.496094 L 39.386719 36.496094 " fill-opacity="1" fill-rule="nonzero"/><path fill="#f0e3df" d="M 39.550781 38.523438 L 38.671875 44.160156 C 38.621094 44.375 38.429688 44.527344 38.214844 44.527344 L 14.867188 44.527344 C 14.578125 44.527344 14.371094 44.265625 14.4375 43.980469 L 15.320312 38.324219 C 15.367188 38.011719 15.636719 37.78125 15.953125 37.78125 L 38.917969 37.78125 C 39.3125 37.78125 39.613281 38.132812 39.550781 38.523438 " fill-opacity="1" fill-rule="nonzero"/><path fill="#f0e3df" d="M 9.085938 47.378906 L 8.628906 50.117188 C 8.628906 50.117188 8.242188 51.316406 9.058594 51.332031 L 40.015625 51.402344 C 40.488281 51.402344 40.894531 51.046875 40.988281 50.550781 C 40.992188 50.527344 41.1875 49.355469 41.515625 47.378906 L 9.085938 47.378906 " fill-opacity="1" fill-rule="nonzero"/><path fill="#ffffff" d="M 24.734375 48.402344 C 23.425781 48.398438 23.417969 50.371094 24.730469 50.375 C 26.035156 50.378906 26.042969 48.40625 24.734375 48.402344 " fill-opacity="1" fill-rule="nonzero"/><g clip-path="url(#9cc60012a6)"><path fill="#560c1b" d="M 9.058594 51.183594 C 9.058594 51.183594 40.015625 51.25 40.015625 51.25 C 40.417969 51.25 40.757812 50.945312 40.839844 50.515625 C 40.90625 50.136719 48.597656 4.523438 48.941406 1.828125 C 49.019531 1.214844 48.976562 0.824219 48.8125 0.632812 C 48.683594 0.484375 48.476562 0.453125 48.179688 0.445312 L 18.328125 0.378906 C 17.996094 0.375 16.992188 0.363281 16.761719 1.871094 L 8.78125 50.140625 C 8.742188 50.433594 8.738281 50.972656 8.902344 51.140625 C 8.941406 51.175781 8.984375 51.191406 9.042969 51.183594 C 9.046875 51.183594 9.054688 51.183594 9.058594 51.183594 Z M 40.015625 51.550781 C 40.015625 51.550781 9.066406 51.484375 9.066406 51.484375 C 8.917969 51.496094 8.789062 51.453125 8.6875 51.351562 C 8.367188 51.023438 8.46875 50.191406 8.480469 50.097656 L 16.464844 1.824219 C 16.644531 0.652344 17.273438 0.0664062 18.332031 0.0742188 L 18.367188 0.0742188 L 48.183594 0.144531 C 48.484375 0.148438 48.820312 0.179688 49.042969 0.4375 C 49.269531 0.699219 49.332031 1.152344 49.242188 1.863281 C 48.921875 4.371094 41.195312 50.265625 41.136719 50.570312 C 41.027344 51.148438 40.566406 51.550781 40.015625 51.550781 " fill-opacity="1" fill-rule="nonzero"/></g><path fill="#ffffff" d="M 27.800781 4.128906 L 21.890625 4.128906 C 21.675781 4.128906 20.917969 4.28125 20.867188 4.496094 L 19.777344 10.175781 C 19.714844 10.457031 19.921875 10.71875 20.207031 10.71875 L 26.6875 10.71875 C 26.902344 10.71875 27.09375 10.566406 27.140625 10.355469 L 28.234375 4.671875 C 28.296875 4.390625 28.089844 4.128906 27.800781 4.128906 " fill-opacity="1" fill-rule="nonzero"/><path fill="#e5d3cf" d="M 21.890625 4.28125 C 21.644531 4.28125 21.074219 4.433594 21.011719 4.539062 L 19.925781 10.203125 C 19.902344 10.300781 19.925781 10.390625 19.980469 10.460938 C 20.035156 10.53125 20.117188 10.570312 20.207031 10.570312 L 26.6875 10.570312 C 26.832031 10.570312 26.960938 10.464844 26.996094 10.320312 L 28.085938 4.644531 C 28.105469 4.550781 28.085938 4.457031 28.03125 4.386719 C 27.976562 4.320312 27.890625 4.28125 27.800781 4.28125 Z M 26.6875 10.871094 L 20.207031 10.871094 C 20.023438 10.871094 19.855469 10.789062 19.742188 10.648438 C 19.628906 10.507812 19.589844 10.324219 19.628906 10.144531 L 20.71875 4.464844 C 20.804688 4.089844 21.789062 3.976562 21.890625 3.976562 L 27.800781 3.976562 C 27.984375 3.976562 28.152344 4.058594 28.265625 4.199219 C 28.378906 4.34375 28.421875 4.527344 28.378906 4.707031 L 27.289062 10.382812 C 27.226562 10.667969 26.972656 10.871094 26.6875 10.871094 " fill-opacity="1" fill-rule="nonzero"/><path fill="#b5613f" d="M 28.070312 11.453125 C 27.921875 11.414062 27.769531 11.386719 27.613281 11.371094 C 27.121094 11.324219 26.5 11.375 26.125 11.015625 C 25.730469 10.640625 25.699219 10.019531 25.636719 9.507812 C 25.421875 7.800781 25.054688 5.996094 24.066406 4.554688 C 23.320312 3.464844 21.6875 3.214844 20.464844 3.253906 C 19.011719 3.304688 17.449219 3.769531 16.746094 5.007812 C 15.210938 7.710938 16.292969 9.898438 16.421875 12.261719 C 16.453125 12.808594 15.707031 13.199219 15.464844 13.65625 C 15.261719 14.042969 15.179688 14.445312 15.21875 14.875 C 15.3125 15.894531 16.601562 16.722656 17.214844 17.53125 C 17.300781 17.644531 17.4375 17.664062 17.554688 17.628906 C 18.375 18.128906 19.570312 18.113281 20.492188 18.171875 C 22.140625 18.277344 23.796875 18.269531 25.445312 18.148438 C 26.363281 18.082031 27.292969 18.039062 28.199219 17.875 C 28.992188 17.730469 30.046875 17.523438 30.453125 16.792969 C 30.503906 16.707031 30.539062 16.617188 30.597656 16.539062 C 30.636719 16.488281 30.679688 16.441406 30.714844 16.390625 C 31.265625 15.597656 30.828125 14.199219 30.417969 13.441406 C 29.9375 12.542969 29.121094 11.722656 28.070312 11.453125 " fill-opacity="1" fill-rule="nonzero"/><path fill="#f7946d" d="M 25.175781 14.515625 C 21.738281 13.59375 18.027344 14.171875 15.203125 16.394531 C 15.125 16.453125 15.089844 16.527344 15.085938 16.597656 C 14.628906 17.226562 15.519531 18.792969 15.839844 19.289062 C 16.707031 20.636719 18.078125 21.863281 19.652344 22.28125 C 23.523438 23.3125 24.964844 18.007812 25.292969 15.113281 C 25.472656 14.953125 25.476562 14.597656 25.175781 14.515625 " fill-opacity="1" fill-rule="nonzero"/><path fill="#f7946d" d="M 18.320312 9.78125 C 18.386719 10.847656 18.460938 11.90625 18.519531 12.964844 C 18.558594 13.699219 18.574219 14.226562 18.515625 14.613281 C 18.453125 15.003906 18.234375 15.222656 18 15.40625 C 18.761719 16.140625 20.300781 16.09375 21.28125 15.9375 C 22.175781 15.792969 23.113281 15.261719 23.671875 14.546875 C 23.488281 14.480469 23.210938 14.398438 23.03125 14.351562 C 22.910156 14.316406 22.8125 14.226562 22.773438 14.109375 C 22.628906 13.671875 22.671875 12.191406 22.605469 11.617188 C 22.5 10.726562 22.292969 10.535156 22.199219 9.648438 C 22.191406 9.578125 22.148438 9.53125 22.097656 9.503906 C 21.785156 8.847656 21.042969 8.761719 20.351562 8.847656 C 19.667969 8.933594 18.707031 8.96875 18.203125 9.46875 C 18.082031 9.589844 18.1875 9.753906 18.320312 9.78125 " fill-opacity="1" fill-rule="nonzero"/><path fill="#f0e3df" d="M 44.78125 4.144531 L 30.105469 4.144531 C 29.238281 4.144531 29.128906 4.296875 29.082031 4.511719 L 28.765625 6.167969 C 28.703125 6.453125 28.910156 6.714844 29.195312 6.714844 L 44.441406 6.714844 C 44.65625 6.714844 44.847656 6.558594 44.894531 6.347656 L 45.210938 4.6875 C 45.277344 4.40625 45.070312 4.144531 44.78125 4.144531 " fill-opacity="1" fill-rule="nonzero"/><path fill="#f0e3df" d="M 44.421875 7.285156 L 36.082031 7.285156 C 35.589844 7.285156 35.527344 7.371094 35.5 7.492188 L 35.414062 7.859375 C 35.378906 8.019531 35.496094 8.167969 35.65625 8.167969 L 44.320312 8.167969 C 44.445312 8.167969 44.550781 8.082031 44.582031 7.960938 L 44.667969 7.59375 C 44.703125 7.433594 44.585938 7.285156 44.421875 7.285156 " fill-opacity="1" fill-rule="nonzero"/><path fill="#d6b9b0" d="M 34.917969 37.277344 C 34.074219 35.5625 33.363281 33.765625 32.324219 32.179688 C 32.210938 32.007812 32.039062 31.960938 31.878906 31.992188 C 29.394531 29.628906 27.171875 27.3125 23.535156 27.433594 C 22.089844 27.480469 20.664062 27.976562 19.488281 28.824219 C 19.050781 29.136719 17.707031 30.15625 17.734375 30.910156 C 17.714844 30.953125 17.707031 31 17.703125 31.050781 C 17.613281 33.085938 17.210938 35.195312 17.390625 37.277344 C 17.609375 39.792969 17.761719 41.945312 18 44.527344 L 37.367188 44.527344 C 37.367188 44.527344 36.273438 40.035156 34.917969 37.277344 " fill-opacity="1" fill-rule="nonzero"/><path fill="#3d0a09" d="M 24.101562 9.207031 C 24.234375 9.808594 24.453125 10.394531 24.65625 10.972656 C 24.851562 11.535156 24.996094 12.21875 25.578125 12.5 C 25.890625 12.65625 26.246094 12.671875 26.585938 12.738281 C 27.007812 12.824219 27.382812 13.015625 27.699219 13.304688 C 28.40625 13.941406 28.691406 14.875 28.84375 15.785156 C 28.871094 15.957031 29.132812 15.886719 29.105469 15.714844 C 28.851562 14.175781 28.097656 12.707031 26.433594 12.4375 C 25.976562 12.367188 25.542969 12.296875 25.289062 11.863281 C 25.125 11.585938 25.039062 11.25 24.933594 10.945312 C 24.726562 10.351562 24.5 9.75 24.363281 9.136719 C 24.324219 8.964844 24.0625 9.035156 24.101562 9.207031 " fill-opacity="1" fill-rule="nonzero"/><path fill="#3d0a09" d="M 17.664062 13.199219 C 17.414062 13.703125 17.171875 14.214844 17.234375 14.789062 C 17.292969 15.363281 17.609375 15.871094 17.910156 16.347656 C 18.003906 16.496094 18.238281 16.359375 18.144531 16.210938 C 17.890625 15.8125 17.621094 15.394531 17.527344 14.921875 C 17.417969 14.347656 17.644531 13.839844 17.898438 13.339844 C 17.976562 13.183594 17.742188 13.042969 17.664062 13.199219 " fill-opacity="1" fill-rule="nonzero"/><path fill="#3d0a09" d="M 22.921875 10.257812 C 22.960938 11.097656 22.835938 12.140625 23.433594 12.816406 C 23.699219 13.113281 24.046875 13.324219 24.328125 13.605469 C 24.757812 14.03125 24.945312 14.617188 24.84375 15.214844 C 24.816406 15.386719 25.078125 15.460938 25.105469 15.289062 C 25.257812 14.390625 24.871094 13.683594 24.191406 13.125 C 23.796875 12.804688 23.421875 12.507812 23.304688 11.980469 C 23.1875 11.429688 23.222656 10.820312 23.195312 10.257812 C 23.1875 10.082031 22.914062 10.082031 22.921875 10.257812 " fill-opacity="1" fill-rule="nonzero"/><path fill="#f7946d" d="M 23.515625 6.207031 C 23.472656 5.988281 23.792969 5.988281 23.707031 5.789062 C 23.226562 4.640625 22.085938 4.148438 20.910156 4.050781 C 20.820312 4.042969 20.75 4.058594 20.6875 4.089844 C 19.792969 4.101562 19.25 4.082031 18.5625 4.679688 C 16.90625 6.121094 17.03125 9.898438 17.761719 11.703125 C 18.1875 12.746094 19.183594 12.9375 20.183594 12.996094 C 21.019531 13.042969 21.890625 12.9375 22.632812 12.304688 C 23.402344 11.644531 23.519531 10.585938 23.679688 9.636719 C 23.855469 8.621094 23.722656 7.226562 23.515625 6.207031 " fill-opacity="1" fill-rule="nonzero"/><path fill="#ffffff" d="M 30.835938 20.828125 C 31.027344 20.308594 31.175781 19.773438 31.28125 19.222656 C 31.289062 19.183594 31.28125 19.152344 31.269531 19.121094 C 31.222656 17.695312 30.261719 15.886719 29.125 15.0625 C 29.074219 15.027344 29.027344 15.023438 28.984375 15.042969 C 28.914062 14.992188 28.839844 14.945312 28.757812 14.90625 C 27.816406 14.421875 26.765625 14.210938 25.71875 14.109375 C 25.191406 14.058594 24.183594 13.851562 24.109375 14.09375 C 23.796875 15.144531 22.289062 15.71875 21.363281 15.914062 C 18.472656 16.523438 17.621094 15.160156 17.480469 15.230469 C 16.101562 15.941406 14.75 16.164062 13.546875 17.164062 C 13.289062 17.378906 13.039062 17.605469 12.800781 17.847656 C 11.710938 18.957031 11.554688 20.523438 11.46875 22.003906 C 11.40625 22.0625 11.375 22.167969 11.449219 22.253906 C 11.828125 22.71875 12.261719 23.125 12.757812 23.460938 C 12.960938 23.597656 13.171875 23.71875 13.382812 23.839844 C 13.492188 27.425781 15.351562 36.320312 17.660156 39.175781 C 19.789062 41.140625 27.605469 37.738281 30.476562 34.578125 C 32.0625 32.832031 31.402344 24.019531 30.835938 20.828125 " fill-opacity="1" fill-rule="nonzero"/><path fill="#3d0a09" d="M 17.320312 16.96875 C 19.464844 18.285156 22.09375 17.734375 24.039062 16.328125 C 24.179688 16.226562 24.042969 15.988281 23.902344 16.09375 C 22.03125 17.441406 19.523438 18.003906 17.457031 16.734375 C 17.308594 16.644531 17.171875 16.878906 17.320312 16.96875 " fill-opacity="1" fill-rule="nonzero"/><path fill="#ff5656" d="M 34.519531 33.863281 C 33.535156 29.011719 32.253906 20.984375 30.386719 16.363281 C 30.226562 15.976562 29.75 15.328125 29.382812 15.125 C 27.53125 14.121094 23.941406 13.699219 22.535156 13.914062 C 22.460938 13.925781 22.328125 13.972656 22.328125 14.042969 C 22.136719 18.542969 21.492188 22.96875 22.480469 27.429688 C 23.902344 33.828125 28.140625 42.148438 29.195312 42.558594 C 29.492188 42.671875 32.234375 41.253906 33.082031 39.8125 C 34.070312 38.132812 34.917969 35.828125 34.519531 33.863281 " fill-opacity="1" fill-rule="nonzero"/><path fill="#560c1b" d="M 24.847656 22.742188 C 24.339844 22.457031 23.671875 22.855469 23.683594 23.441406 C 23.6875 23.707031 23.835938 23.925781 24.039062 24.054688 C 24.070312 24.082031 24.105469 24.109375 24.140625 24.132812 C 24.382812 24.269531 24.675781 24.265625 24.910156 24.109375 C 25.394531 23.78125 25.355469 23.03125 24.847656 22.742188 " fill-opacity="1" fill-rule="nonzero"/><path fill="#560c1b" d="M 25.171875 29.277344 C 25.175781 29.492188 25.292969 29.667969 25.457031 29.773438 C 25.484375 29.796875 25.511719 29.820312 25.542969 29.835938 C 25.90625 30.046875 26.421875 29.851562 26.476562 29.203125 C 26.167969 28.265625 25.160156 28.632812 25.171875 29.277344 " fill-opacity="1" fill-rule="nonzero"/><path fill="#ff5656" d="M 13.90625 16.816406 C 13.839844 16.71875 13.875 16.542969 13.742188 16.625 C 11.921875 17.714844 11.042969 19.804688 10.25 21.640625 C 9.332031 23.757812 8.605469 25.945312 8.054688 28.183594 C 7.980469 28.222656 8.789062 35.105469 8.824219 35.117188 C 10.921875 35.847656 12.03125 34.675781 12.808594 33.285156 C 13.816406 31.476562 14.390625 29.636719 14.582031 27.574219 C 14.679688 26.503906 14.710938 25.429688 14.792969 24.355469 C 14.882812 23.167969 15.117188 22.019531 15.296875 20.84375 C 15.503906 19.496094 15.710938 17.082031 13.90625 16.816406 " fill-opacity="1" fill-rule="nonzero"/><path fill="#ff5656" d="M 42.257812 29.800781 C 42.210938 29.753906 42.152344 29.722656 42.125 29.761719 C 41.871094 29.714844 41.546875 30.011719 41.40625 30.175781 C 41.074219 30.5625 40.898438 31.09375 40.757812 31.574219 C 40.574219 32.191406 40.464844 32.835938 40.4375 33.480469 C 40.425781 33.785156 40.207031 34.609375 40.578125 34.792969 C 40.894531 34.953125 41.371094 34.554688 41.546875 34.335938 C 41.886719 33.910156 42.101562 33.351562 42.265625 32.839844 C 42.453125 32.253906 42.558594 31.640625 42.578125 31.027344 C 42.59375 30.574219 42.605469 30.136719 42.257812 29.800781 " fill-opacity="1" fill-rule="nonzero"/><path fill="#560c1b" d="M 27.589844 35.285156 C 27.59375 35.488281 27.707031 35.65625 27.863281 35.753906 C 27.886719 35.777344 27.914062 35.796875 27.941406 35.8125 C 28.472656 36.117188 29.042969 35.417969 28.691406 34.945312 C 28.359375 34.492188 27.582031 34.683594 27.589844 35.285156 " fill-opacity="1" fill-rule="nonzero"/><path fill="#ff5656" d="M 39.085938 30.339844 C 39.148438 28.964844 37.734375 28.242188 37.105469 27.078125 C 36.257812 25.515625 35.402344 23.960938 34.539062 22.414062 C 33.605469 20.75 33.011719 18.507812 31.980469 16.902344 C 31.160156 15.621094 30.488281 15.121094 28.472656 14.617188 C 28.316406 14.582031 28.378906 14.84375 28.367188 14.882812 C 28.023438 16.566406 27.636719 18.242188 27.328125 19.929688 C 27.054688 21.433594 27.742188 24.023438 28.332031 25.382812 C 29.667969 28.472656 33.300781 33.902344 35.464844 33.339844 C 36.546875 33.0625 39.03125 31.519531 39.085938 30.339844 " fill-opacity="1" fill-rule="nonzero"/><path fill="#f7946d" d="M 49.503906 30.441406 C 49.625 30.074219 49.433594 29.726562 49.027344 29.699219 C 48.828125 29.6875 48.617188 29.734375 48.402344 29.808594 C 48.332031 29.613281 48.140625 29.492188 47.914062 29.457031 C 47.457031 29.390625 47.011719 29.664062 46.605469 29.835938 C 46.359375 29.941406 46.109375 30.03125 45.855469 30.117188 C 45.914062 30.015625 45.957031 29.90625 45.964844 29.78125 C 46.074219 29.535156 45.792969 29.1875 45.480469 29.332031 C 45.453125 29.339844 45.425781 29.351562 45.402344 29.367188 C 44.871094 29.625 44.25 29.585938 43.699219 29.785156 C 43.246094 29.949219 42.9375 30.253906 42.679688 30.628906 C 42.015625 30.5 40.335938 30.070312 40.160156 30.238281 C 39.378906 30.992188 39.097656 32.09375 39.398438 33.132812 C 39.484375 33.4375 41.515625 33.453125 42.277344 33.492188 C 42.296875 33.5 42.316406 33.507812 42.339844 33.515625 C 43.558594 33.851562 44.871094 33.789062 46.050781 33.335938 C 47.210938 32.890625 49.097656 31.699219 49.503906 30.441406 " fill-opacity="1" fill-rule="nonzero"/><path fill="#ff5656" d="M 3.472656 24.695312 C 3.453125 24.636719 3.378906 24.609375 3.332031 24.660156 C 3.085938 24.90625 2.894531 25.210938 2.917969 25.570312 C 2.921875 25.585938 2.925781 25.597656 2.933594 25.609375 C 2.929688 25.664062 2.972656 25.722656 3.039062 25.707031 C 3.230469 25.667969 3.488281 25.621094 3.570312 25.417969 C 3.660156 25.199219 3.546875 24.902344 3.472656 24.695312 " fill-opacity="1" fill-rule="nonzero"/><g clip-path="url(#d5f0d50f96)"><path fill="#f7946d" d="M 5.925781 16.703125 C 5.332031 15.738281 4.492188 17.421875 4.226562 18.5 C 4.171875 18.730469 3.136719 17.585938 1.78125 17.972656 C 1.054688 18.179688 1.015625 19.09375 1.160156 19.75 C 1.15625 19.75 1.15625 19.753906 1.152344 19.753906 C 0.789062 20.121094 0.777344 20.71875 0.957031 21.191406 C 0.933594 21.210938 0.90625 21.230469 0.882812 21.257812 C 0.503906 21.648438 0.589844 22.527344 1 22.867188 C 1.070312 22.925781 1.148438 22.9375 1.21875 22.925781 C 1.242188 22.941406 1.257812 22.953125 1.28125 22.96875 C 1.324219 23.25 1.332031 23.417969 1.523438 23.632812 C 1.832031 23.976562 2.195312 23.761719 2.625 23.878906 C 2.636719 23.878906 3.363281 25.472656 3.617188 25.902344 C 3.683594 26.023438 6.261719 24.523438 6.308594 24.222656 C 6.027344 23.820312 5.75 23.410156 5.488281 22.992188 C 5.253906 22.617188 5.351562 21.984375 5.40625 21.558594 C 5.671875 19.527344 5.511719 19.011719 5.539062 18.601562 C 5.585938 17.953125 6.078125 16.953125 5.925781 16.703125 " fill-opacity="1" fill-rule="nonzero"/></g><path fill="#ff5656" d="M 41 32.265625 C 41.183594 31.664062 41.703125 30.660156 42.246094 30.039062 C 42.339844 29.933594 42.289062 29.761719 42.152344 29.71875 C 40.132812 29.074219 37.363281 28.265625 36.863281 28.175781 C 36.386719 28.085938 35.886719 28.851562 35.414062 29.0625 C 34.90625 29.289062 34.675781 29.992188 34.496094 30.476562 C 34.210938 31.242188 33.816406 32.78125 33.875 32.832031 C 34.765625 33.65625 36.945312 34.464844 40.585938 34.859375 C 40.722656 34.875 40.839844 34.769531 40.839844 34.636719 C 40.84375 33.804688 40.765625 33.03125 41 32.265625 " fill-opacity="1" fill-rule="nonzero"/><path fill="#3d0a09" d="M 28.601562 25.730469 C 30.082031 28.792969 31.777344 32.144531 35.074219 33.574219 C 35.230469 33.644531 35.371094 33.410156 35.210938 33.339844 C 31.957031 31.925781 30.300781 28.617188 28.835938 25.589844 C 28.757812 25.433594 28.523438 25.570312 28.601562 25.730469 " fill-opacity="1" fill-rule="nonzero"/><path fill="#ff5656" d="M 19.171875 27.773438 C 18.84375 25.601562 18.480469 23.433594 18.183594 21.253906 C 17.886719 19.101562 17.945312 16.742188 18.515625 14.613281 C 18.539062 14.519531 18.449219 14.433594 18.355469 14.472656 C 17.769531 14.714844 15.777344 15.449219 15.019531 15.855469 C 14.121094 16.34375 13.222656 16.90625 12.507812 17.664062 C 11.40625 18.828125 10.4375 22.324219 10.113281 23.441406 C 10.078125 23.570312 10.183594 23.65625 10.289062 23.652344 C 10.324219 23.714844 12.421875 25.625 12.519531 25.585938 C 12.523438 26.210938 12.296875 33.34375 12.660156 38.539062 C 12.71875 39.339844 13.261719 40.441406 13.847656 41.015625 C 14.710938 41.855469 18.503906 42.894531 18.53125 42.566406 C 18.898438 38.230469 19.8125 32.058594 19.171875 27.773438 " fill-opacity="1" fill-rule="nonzero"/><g clip-path="url(#a422ecc899)"><path fill="#ffffff" d="M 52.628906 16.210938 L 24.011719 16.210938 C 23.660156 16.210938 22.433594 16.457031 22.355469 16.800781 L 20.765625 25.640625 C 20.664062 26.097656 21 26.523438 21.460938 26.523438 L 50.996094 26.523438 C 51.347656 26.523438 51.65625 26.273438 51.734375 25.929688 L 53.324219 17.089844 C 53.429688 16.632812 53.09375 16.210938 52.628906 16.210938 " fill-opacity="1" fill-rule="nonzero"/></g><g clip-path="url(#1358870723)"><path fill="#e5d3cf" d="M 24.011719 16.359375 C 23.582031 16.359375 22.550781 16.636719 22.503906 16.835938 L 20.914062 25.667969 C 20.875 25.847656 20.914062 26.023438 21.019531 26.160156 C 21.128906 26.292969 21.289062 26.371094 21.460938 26.371094 L 50.996094 26.371094 C 51.277344 26.371094 51.523438 26.171875 51.585938 25.898438 L 53.175781 17.0625 C 53.21875 16.882812 53.175781 16.707031 53.070312 16.570312 C 52.964844 16.4375 52.800781 16.359375 52.628906 16.359375 Z M 50.996094 26.671875 L 21.460938 26.671875 C 21.195312 26.671875 20.949219 26.554688 20.785156 26.347656 C 20.621094 26.140625 20.558594 25.871094 20.621094 25.609375 L 22.207031 16.773438 C 22.324219 16.261719 23.777344 16.058594 24.011719 16.058594 L 52.628906 16.058594 C 52.894531 16.058594 53.140625 16.175781 53.304688 16.382812 C 53.472656 16.589844 53.53125 16.859375 53.472656 17.121094 L 51.882812 25.957031 C 51.789062 26.375 51.417969 26.671875 50.996094 26.671875 " fill-opacity="1" fill-rule="nonzero"/></g><path fill="#ff5656" d="M 12.070312 29.433594 C 11.097656 28.117188 10.542969 26.496094 9.410156 25.316406 C 8.773438 24.65625 7.40625 23.496094 6.367188 23.5625 C 6.257812 23.570312 6.152344 23.515625 6.09375 23.417969 C 5.96875 23.195312 5.742188 22.808594 5.597656 22.601562 C 5.472656 22.425781 5.234375 22.613281 5.300781 22.792969 C 5.320312 23.953125 4.066406 24.941406 3.050781 25.394531 C 2.96875 25.433594 2.941406 25.5 2.953125 25.566406 C 2.945312 25.601562 2.945312 25.640625 2.96875 25.683594 C 3.144531 25.988281 3.335938 26.277344 3.542969 26.554688 C 3.589844 26.617188 3.65625 26.695312 3.632812 26.773438 C 3.179688 28.167969 4.292969 30.523438 5.664062 32.621094 C 7.128906 34.859375 8.867188 35.601562 11.132812 35.035156 C 11.339844 34.984375 11.628906 33.4375 11.808594 32.933594 C 12.183594 31.894531 12.265625 30.792969 12.085938 29.707031 C 12.082031 29.6875 12.074219 29.675781 12.0625 29.664062 C 12.109375 29.601562 12.128906 29.515625 12.070312 29.433594 " fill-opacity="1" fill-rule="nonzero"/><path fill="#3d0a09" d="M 12.320312 24.042969 C 12.164062 27.25 12.234375 30.460938 12.527344 33.660156 C 12.542969 33.832031 12.8125 33.832031 12.796875 33.660156 C 12.503906 30.460938 12.4375 27.25 12.59375 24.042969 C 12.601562 23.871094 12.332031 23.871094 12.320312 24.042969 " fill-opacity="1" fill-rule="nonzero"/><path fill="#3d0a09" d="M 37.949219 28.554688 C 37.128906 28.652344 36.402344 29.042969 35.882812 29.6875 C 35.773438 29.824219 35.964844 30.015625 36.074219 29.878906 C 36.546875 29.296875 37.199219 28.917969 37.949219 28.828125 C 38.121094 28.808594 38.125 28.535156 37.949219 28.554688 " fill-opacity="1" fill-rule="nonzero"/><path fill="#cb5b45" d="M 48.695312 30.945312 C 48.539062 30.597656 48.015625 30.671875 47.71875 30.742188 C 47.195312 30.863281 46.867188 31.238281 46.421875 31.5 C 45.816406 31.859375 45.1875 31.59375 44.546875 31.507812 C 43.976562 31.433594 43.410156 31.519531 42.875 31.734375 C 42.714844 31.796875 42.785156 32.0625 42.949219 31.996094 C 43.417969 31.804688 43.914062 31.71875 44.417969 31.765625 C 44.917969 31.8125 45.402344 32.007812 45.90625 31.960938 C 46.285156 31.925781 46.585938 31.730469 46.878906 31.503906 C 47.0625 31.363281 47.246094 31.214844 47.457031 31.117188 C 47.640625 31.03125 48.332031 30.796875 48.460938 31.082031 C 48.53125 31.242188 48.765625 31.105469 48.695312 30.945312 " fill-opacity="1" fill-rule="nonzero"/><path fill="#3d0a09" d="M 40.730469 33.601562 C 40.710938 33.816406 40.742188 34.035156 40.816406 34.242188 C 40.875 34.402344 41.140625 34.332031 41.078125 34.167969 C 41.011719 33.984375 40.984375 33.796875 41 33.601562 C 41.015625 33.425781 40.742188 33.425781 40.730469 33.601562 " fill-opacity="1" fill-rule="nonzero"/><path fill="#cb5b45" d="M 1.570312 19.972656 C 2.140625 20.148438 3.265625 20.402344 3.558594 19.652344 C 3.660156 19.394531 3.648438 18.917969 3.476562 18.683594 C 3.277344 18.410156 2.765625 18.398438 2.464844 18.363281 C 2.289062 18.347656 2.292969 18.617188 2.464844 18.636719 C 2.753906 18.667969 3.144531 18.683594 3.304688 18.976562 C 3.441406 19.238281 3.316406 19.664062 3.074219 19.792969 C 2.667969 20.011719 2.050781 19.835938 1.640625 19.710938 C 1.472656 19.660156 1.402344 19.921875 1.570312 19.972656 " fill-opacity="1" fill-rule="nonzero"/><path fill="#cb5b45" d="M 1.363281 21.472656 C 1.875 21.546875 2.757812 21.75 3.171875 21.34375 C 3.515625 21.007812 3.632812 20.398438 3.363281 19.992188 C 3.265625 19.847656 3.03125 19.980469 3.128906 20.128906 C 3.390625 20.523438 3.167969 21.191406 2.679688 21.269531 C 2.285156 21.335938 1.828125 21.269531 1.4375 21.210938 C 1.265625 21.1875 1.191406 21.449219 1.363281 21.472656 " fill-opacity="1" fill-rule="nonzero"/><path fill="#cb5b45" d="M 1.523438 22.953125 C 2.046875 23.019531 2.675781 23.070312 3.082031 22.65625 C 3.460938 22.269531 3.304688 21.71875 3.046875 21.3125 C 2.953125 21.164062 2.71875 21.300781 2.8125 21.449219 C 3.0625 21.839844 3.171875 22.347656 2.691406 22.605469 C 2.335938 22.796875 1.902344 22.726562 1.523438 22.679688 C 1.351562 22.65625 1.351562 22.929688 1.523438 22.953125 " fill-opacity="1" fill-rule="nonzero"/><path fill="#3d0a09" d="M 24.234375 42.078125 C 24.449219 42.15625 24.667969 42.21875 24.898438 42.253906 C 25.101562 42.285156 25.414062 42.246094 25.589844 42.359375 C 25.742188 42.457031 25.871094 42.6875 25.980469 42.824219 C 26.371094 43.324219 26.746094 43.835938 27.167969 44.308594 C 27.285156 44.4375 27.480469 44.246094 27.363281 44.113281 C 26.902344 43.605469 26.503906 43.046875 26.074219 42.507812 C 25.972656 42.382812 25.867188 42.210938 25.726562 42.125 C 25.570312 42.027344 25.347656 42.03125 25.175781 42.011719 C 24.867188 41.976562 24.59375 41.921875 24.304688 41.8125 C 24.140625 41.753906 24.070312 42.015625 24.234375 42.078125 " fill-opacity="1" fill-rule="nonzero"/><path fill="#b5613f" d="M 22.085938 6.953125 C 21.953125 6.925781 21.816406 6.921875 21.691406 6.949219 C 21.472656 6.996094 21.234375 7.152344 21.246094 7.433594 C 21.257812 7.75 21.496094 7.699219 21.699219 7.683594 C 21.863281 7.671875 22.023438 7.691406 22.183594 7.738281 C 22.316406 7.78125 22.445312 7.84375 22.582031 7.808594 C 22.644531 7.792969 22.691406 7.730469 22.707031 7.664062 C 22.792969 7.351562 22.542969 7.113281 22.304688 7.015625 C 22.238281 6.988281 22.164062 6.96875 22.085938 6.953125 " fill-opacity="1" fill-rule="nonzero"/><path fill="#b5613f" d="M 18.921875 6.878906 C 19.054688 6.851562 19.195312 6.847656 19.320312 6.875 C 19.535156 6.921875 19.777344 7.082031 19.765625 7.363281 C 19.75 7.679688 19.511719 7.628906 19.308594 7.613281 C 19.144531 7.601562 18.984375 7.621094 18.824219 7.667969 C 18.695312 7.710938 18.566406 7.773438 18.429688 7.738281 C 18.367188 7.722656 18.320312 7.660156 18.300781 7.59375 C 18.21875 7.28125 18.464844 7.039062 18.703125 6.945312 C 18.773438 6.917969 18.847656 6.894531 18.921875 6.878906 " fill-opacity="1" fill-rule="nonzero"/><path fill="#3d0a09" d="M 16.957031 15.648438 C 16.066406 18.726562 16.621094 21.929688 17.09375 25.027344 C 17.351562 26.703125 17.542969 28.375 17.558594 30.070312 C 17.574219 31.753906 17.464844 33.4375 17.339844 35.117188 C 17.203125 37.007812 17.035156 38.898438 16.839844 40.78125 C 16.820312 40.957031 17.09375 40.957031 17.109375 40.78125 C 17.453125 37.476562 17.789062 34.140625 17.828125 30.8125 C 17.847656 29.214844 17.738281 27.632812 17.519531 26.050781 C 17.292969 24.414062 16.984375 22.789062 16.839844 21.140625 C 16.675781 19.324219 16.710938 17.480469 17.21875 15.71875 C 17.269531 15.550781 17.007812 15.480469 16.957031 15.648438 " fill-opacity="1" fill-rule="nonzero"/><path fill="#b5613f" d="M 23.222656 4.683594 C 22.460938 3.714844 21.460938 3.445312 20.1875 3.652344 C 19.300781 3.792969 18.480469 4.183594 17.800781 4.765625 C 17.484375 5.035156 17.195312 5.347656 17.050781 5.742188 C 16.847656 6.296875 16.921875 6.902344 16.996094 7.472656 C 17 7.484375 16.941406 7.996094 17.042969 7.984375 C 18.015625 7.851562 18.753906 7.054688 19.410156 6.359375 C 19.925781 5.808594 20.367188 5.191406 20.652344 4.496094 C 20.691406 4.410156 20.738281 4.441406 20.757812 4.535156 C 20.921875 5.347656 21.175781 6.066406 21.691406 6.730469 C 22.226562 7.417969 23.320312 8.113281 24.199219 7.617188 C 24.234375 7.679688 23.855469 5.484375 23.222656 4.683594 " fill-opacity="1" fill-rule="nonzero"/><path fill="#f7946d" d="M 24.457031 7.957031 C 24.371094 7.746094 24.164062 7.601562 23.769531 7.816406 C 23.738281 7.832031 23.710938 7.847656 23.679688 7.867188 C 23.671875 7.925781 23.65625 7.980469 23.636719 8.039062 C 23.605469 8.507812 23.398438 8.960938 23.207031 9.414062 C 23.304688 9.507812 23.535156 9.539062 23.699219 9.488281 C 24.222656 9.335938 24.363281 8.742188 24.480469 8.429688 C 24.523438 8.320312 24.523438 8.121094 24.457031 7.957031 " fill-opacity="1" fill-rule="nonzero"/><path fill="#f7946d" d="M 17.414062 8.050781 C 17.375 8.023438 17.335938 7.996094 17.292969 7.972656 C 16.886719 7.738281 16.675781 7.898438 16.585938 8.128906 C 16.515625 8.308594 16.519531 8.527344 16.558594 8.648438 C 16.683594 8.988281 16.828125 9.640625 17.359375 9.808594 C 17.484375 9.847656 17.636719 9.84375 17.753906 9.796875 C 17.523438 9.226562 17.351562 8.640625 17.414062 8.050781 " fill-opacity="1" fill-rule="nonzero"/><path fill="#2e060a" d="M 22.171875 8.253906 C 22.152344 8.089844 22.070312 7.859375 21.859375 7.859375 C 21.179688 7.867188 21.546875 9.203125 22.011719 8.804688 C 22.160156 8.675781 22.195312 8.4375 22.171875 8.253906 " fill-opacity="1" fill-rule="nonzero"/><path fill="#2e060a" d="M 19.453125 8.152344 C 19.4375 7.996094 19.363281 7.777344 19.167969 7.78125 C 18.542969 7.789062 18.875 9.050781 19.304688 8.671875 C 19.441406 8.550781 19.472656 8.324219 19.453125 8.152344 " fill-opacity="1" fill-rule="nonzero"/><path fill="#ffffff" d="M 21.339844 9.699219 C 20.855469 9.765625 20.355469 9.824219 19.867188 9.738281 C 19.789062 9.726562 19.433594 9.691406 19.53125 9.867188 C 19.753906 10.265625 20 10.390625 20.476562 10.359375 C 20.882812 10.332031 21.242188 10.171875 21.445312 9.828125 C 21.484375 9.757812 21.421875 9.6875 21.339844 9.699219 " fill-opacity="1" fill-rule="nonzero"/><path fill="#cb5b45" d="M 20.0625 8.296875 C 19.589844 8.597656 19.796875 9.175781 20.175781 9.445312 C 20.320312 9.542969 20.457031 9.308594 20.3125 9.207031 C 20.105469 9.0625 19.914062 8.714844 20.199219 8.53125 C 20.34375 8.4375 20.207031 8.203125 20.0625 8.296875 " fill-opacity="1" fill-rule="nonzero"/><path fill="#cb5b45" d="M 20.71875 9.140625 C 20.785156 9.160156 20.847656 9.191406 20.902344 9.230469 C 20.964844 9.273438 21.054688 9.242188 21.089844 9.183594 C 21.128906 9.113281 21.101562 9.039062 21.039062 8.996094 C 20.964844 8.941406 20.878906 8.902344 20.789062 8.875 C 20.625 8.824219 20.550781 9.089844 20.71875 9.140625 " fill-opacity="1" fill-rule="nonzero"/><path fill="#cb5b45" d="M 23.660156 8.050781 C 23.597656 8.355469 23.515625 8.65625 23.414062 8.953125 C 23.355469 9.117188 23.617188 9.1875 23.675781 9.023438 C 23.777344 8.730469 23.859375 8.429688 23.921875 8.125 C 23.957031 7.953125 23.695312 7.878906 23.660156 8.050781 " fill-opacity="1" fill-rule="nonzero"/><path fill="#cb5b45" d="M 17.203125 8.316406 C 17.230469 8.648438 17.28125 8.976562 17.363281 9.296875 C 17.410156 9.46875 17.671875 9.394531 17.628906 9.226562 C 17.550781 8.925781 17.5 8.625 17.476562 8.316406 C 17.460938 8.144531 17.191406 8.144531 17.203125 8.316406 " fill-opacity="1" fill-rule="nonzero"/><path fill="#3d0a09" d="M 22.257812 4.535156 C 23.351562 5.121094 23.753906 6.328125 24.101562 7.441406 C 24.152344 7.609375 24.414062 7.539062 24.363281 7.371094 C 23.996094 6.1875 23.554688 4.917969 22.394531 4.300781 C 22.238281 4.21875 22.101562 4.453125 22.257812 4.535156 " fill-opacity="1" fill-rule="nonzero"/><path fill="#3d0a09" d="M 17.226562 5.488281 C 16.878906 6.195312 16.746094 6.957031 16.84375 7.742188 C 16.867188 7.910156 17.140625 7.914062 17.117188 7.742188 C 17.023438 7.003906 17.136719 6.292969 17.460938 5.625 C 17.539062 5.46875 17.304688 5.328125 17.226562 5.488281 " fill-opacity="1" fill-rule="nonzero"/><path fill="#cb5b45" d="M 22.253906 12.417969 C 21.257812 13.023438 20.117188 13.117188 19.03125 12.691406 C 18.871094 12.625 18.796875 12.890625 18.960938 12.953125 C 20.109375 13.402344 21.335938 13.292969 22.390625 12.652344 C 22.539062 12.5625 22.40625 12.324219 22.253906 12.417969 " fill-opacity="1" fill-rule="nonzero"/><path fill="#3d0a09" d="M 5.863281 23.824219 C 5.648438 24.765625 5.164062 25.742188 4.117188 25.910156 C 3.945312 25.9375 4.019531 26.199219 4.191406 26.171875 C 5.328125 25.988281 5.890625 24.925781 6.128906 23.898438 C 6.167969 23.726562 5.90625 23.65625 5.863281 23.824219 " fill-opacity="1" fill-rule="nonzero"/><path fill="#3d0a09" d="M 9.246094 25.382812 C 9.953125 25.898438 10.496094 26.589844 10.832031 27.398438 C 10.894531 27.558594 11.160156 27.488281 11.09375 27.328125 C 10.726562 26.445312 10.152344 25.710938 9.382812 25.144531 C 9.242188 25.042969 9.105469 25.277344 9.246094 25.382812 " fill-opacity="1" fill-rule="nonzero"/><path fill="#ffc070" d="M 28.867188 20.820312 C 29.058594 20.570312 28.890625 20.367188 28.511719 20.316406 C 28.414062 20.300781 27.945312 20.25 27.789062 20.230469 C 27.75 20.222656 27.714844 20.199219 27.699219 20.160156 C 27.570312 19.84375 27.441406 19.214844 27.128906 19.261719 C 26.886719 19.292969 26.566406 19.835938 26.363281 20.113281 C 26.339844 20.140625 26.308594 20.15625 26.269531 20.15625 C 25.953125 20.164062 25.296875 20.21875 25.257812 20.28125 C 25.171875 20.320312 25.109375 20.394531 25.082031 20.492188 C 25.039062 20.644531 25.097656 20.78125 25.160156 20.914062 C 25.226562 21.046875 25.367188 21.203125 25.492188 21.328125 C 25.566406 21.402344 25.585938 21.515625 25.53125 21.605469 C 25.367188 21.90625 25.210938 22.199219 25.054688 22.511719 C 24.945312 22.738281 25.058594 22.910156 25.246094 22.902344 C 25.292969 22.917969 25.34375 22.921875 25.40625 22.910156 C 25.859375 22.800781 26.316406 22.636719 26.75 22.425781 C 26.785156 22.40625 26.824219 22.410156 26.855469 22.429688 C 27.199219 22.628906 27.566406 22.804688 27.929688 22.972656 C 28.089844 23.042969 28.238281 22.964844 28.3125 22.847656 C 28.386719 22.789062 28.433594 22.691406 28.410156 22.574219 C 28.34375 22.234375 28.269531 21.890625 28.179688 21.554688 C 28.167969 21.511719 28.179688 21.46875 28.210938 21.441406 C 28.421875 21.246094 28.699219 21.042969 28.867188 20.820312 " fill-opacity="1" fill-rule="nonzero"/><path fill="#ffc070" d="M 33.558594 20.820312 C 33.746094 20.570312 33.582031 20.367188 33.199219 20.316406 C 33.105469 20.300781 32.632812 20.25 32.476562 20.230469 C 32.4375 20.222656 32.402344 20.199219 32.386719 20.160156 C 32.257812 19.84375 32.132812 19.214844 31.816406 19.261719 C 31.574219 19.292969 31.257812 19.835938 31.050781 20.113281 C 31.027344 20.140625 30.996094 20.15625 30.960938 20.15625 C 30.644531 20.164062 29.988281 20.21875 29.945312 20.28125 C 29.859375 20.320312 29.796875 20.394531 29.769531 20.492188 C 29.726562 20.644531 29.785156 20.78125 29.851562 20.914062 C 29.917969 21.046875 30.054688 21.203125 30.183594 21.328125 C 30.257812 21.402344 30.273438 21.515625 30.222656 21.605469 C 30.054688 21.90625 29.898438 22.199219 29.746094 22.511719 C 29.632812 22.738281 29.746094 22.910156 29.933594 22.902344 C 29.980469 22.917969 30.035156 22.921875 30.09375 22.910156 C 30.546875 22.800781 31.003906 22.636719 31.441406 22.425781 C 31.472656 22.40625 31.511719 22.410156 31.546875 22.429688 C 31.890625 22.628906 32.253906 22.804688 32.621094 22.972656 C 32.777344 23.042969 32.925781 22.964844 33 22.847656 C 33.074219 22.789062 33.121094 22.691406 33.097656 22.574219 C 33.03125 22.234375 32.957031 21.890625 32.867188 21.554688 C 32.855469 21.511719 32.871094 21.46875 32.902344 21.441406 C 33.109375 21.246094 33.390625 21.042969 33.558594 20.820312 " fill-opacity="1" fill-rule="nonzero"/><path fill="#ffc070" d="M 38.246094 20.820312 C 38.433594 20.570312 38.269531 20.367188 37.886719 20.316406 C 37.792969 20.300781 37.320312 20.25 37.164062 20.230469 C 37.125 20.222656 37.089844 20.199219 37.074219 20.160156 C 36.949219 19.84375 36.820312 19.214844 36.503906 19.261719 C 36.261719 19.292969 35.945312 19.835938 35.738281 20.113281 C 35.71875 20.140625 35.683594 20.15625 35.648438 20.15625 C 35.332031 20.164062 34.675781 20.21875 34.632812 20.28125 C 34.550781 20.320312 34.484375 20.394531 34.457031 20.492188 C 34.417969 20.644531 34.472656 20.78125 34.539062 20.914062 C 34.605469 21.046875 34.742188 21.203125 34.871094 21.328125 C 34.945312 21.402344 34.960938 21.515625 34.910156 21.605469 C 34.742188 21.90625 34.585938 22.199219 34.433594 22.511719 C 34.320312 22.738281 34.433594 22.910156 34.621094 22.902344 C 34.667969 22.917969 34.722656 22.921875 34.78125 22.910156 C 35.234375 22.800781 35.691406 22.636719 36.128906 22.425781 C 36.164062 22.40625 36.203125 22.410156 36.234375 22.429688 C 36.578125 22.628906 36.941406 22.804688 37.308594 22.972656 C 37.464844 23.042969 37.617188 22.964844 37.6875 22.847656 C 37.761719 22.789062 37.808594 22.691406 37.785156 22.574219 C 37.71875 22.234375 37.644531 21.890625 37.554688 21.554688 C 37.546875 21.511719 37.558594 21.46875 37.589844 21.441406 C 37.796875 21.246094 38.078125 21.042969 38.246094 20.820312 " fill-opacity="1" fill-rule="nonzero"/><path fill="#ffc070" d="M 43.164062 20.820312 C 43.355469 20.570312 43.1875 20.367188 42.808594 20.316406 C 42.710938 20.300781 42.238281 20.25 42.085938 20.230469 C 42.042969 20.222656 42.007812 20.199219 41.996094 20.160156 C 41.867188 19.84375 41.738281 19.214844 41.425781 19.261719 C 41.179688 19.292969 40.863281 19.835938 40.660156 20.113281 C 40.636719 20.140625 40.601562 20.15625 40.566406 20.15625 C 40.25 20.164062 39.59375 20.21875 39.554688 20.28125 C 39.46875 20.320312 39.402344 20.394531 39.375 20.492188 C 39.335938 20.644531 39.390625 20.78125 39.457031 20.914062 C 39.523438 21.046875 39.664062 21.203125 39.789062 21.328125 C 39.863281 21.402344 39.878906 21.515625 39.828125 21.605469 C 39.664062 21.90625 39.503906 22.199219 39.351562 22.511719 C 39.242188 22.738281 39.355469 22.910156 39.542969 22.902344 C 39.589844 22.917969 39.640625 22.921875 39.703125 22.910156 C 40.15625 22.800781 40.609375 22.636719 41.046875 22.425781 C 41.082031 22.40625 41.121094 22.410156 41.152344 22.429688 C 41.496094 22.628906 41.859375 22.804688 42.226562 22.972656 C 42.386719 23.042969 42.535156 22.964844 42.605469 22.847656 C 42.683594 22.789062 42.730469 22.691406 42.707031 22.574219 C 42.640625 22.234375 42.566406 21.890625 42.476562 21.554688 C 42.464844 21.511719 42.476562 21.46875 42.507812 21.441406 C 42.71875 21.246094 42.996094 21.042969 43.164062 20.820312 " fill-opacity="1" fill-rule="nonzero"/><path fill="#ffc070" d="M 48.070312 20.820312 C 48.261719 20.570312 48.09375 20.367188 47.714844 20.316406 C 47.617188 20.300781 47.144531 20.25 46.992188 20.230469 C 46.949219 20.222656 46.914062 20.199219 46.898438 20.160156 C 46.773438 19.84375 46.644531 19.214844 46.328125 19.261719 C 46.085938 19.292969 45.769531 19.835938 45.5625 20.113281 C 45.542969 20.140625 45.507812 20.15625 45.472656 20.15625 C 45.15625 20.164062 44.5 20.21875 44.460938 20.28125 C 44.375 20.320312 44.308594 20.394531 44.28125 20.492188 C 44.242188 20.644531 44.296875 20.78125 44.363281 20.914062 C 44.429688 21.046875 44.566406 21.203125 44.695312 21.328125 C 44.769531 21.402344 44.785156 21.515625 44.734375 21.605469 C 44.566406 21.90625 44.410156 22.199219 44.257812 22.511719 C 44.148438 22.738281 44.261719 22.910156 44.445312 22.902344 C 44.492188 22.917969 44.546875 22.921875 44.609375 22.910156 C 45.058594 22.800781 45.515625 22.636719 45.953125 22.425781 C 45.988281 22.40625 46.027344 22.410156 46.058594 22.429688 C 46.402344 22.628906 46.765625 22.804688 47.132812 22.972656 C 47.292969 23.042969 47.441406 22.964844 47.511719 22.847656 C 47.585938 22.789062 47.632812 22.691406 47.613281 22.574219 C 47.546875 22.234375 47.46875 21.890625 47.382812 21.554688 C 47.371094 21.511719 47.382812 21.46875 47.414062 21.441406 C 47.625 21.246094 47.902344 21.042969 48.070312 20.820312 " fill-opacity="1" fill-rule="nonzero"/><path fill="#cb5b45" d="M 2.894531 22.886719 C 3.085938 23.09375 3.027344 23.496094 2.773438 23.617188 C 2.613281 23.691406 2.75 23.925781 2.910156 23.851562 C 3.328125 23.65625 3.386719 23.019531 3.085938 22.695312 C 2.96875 22.566406 2.773438 22.757812 2.894531 22.886719 " fill-opacity="1" fill-rule="nonzero"/></svg>