<svg xmlns="http://www.w3.org/2000/svg" xmlns:xlink="http://www.w3.org/1999/xlink" width="237" zoomAndPan="magnify" viewBox="0 0 177.75 38.999999" height="52" preserveAspectRatio="xMidYMid meet" version="1.0"><defs><g/><clipPath id="57b9f28390"><path d="M 0 0.0273438 L 39 0.0273438 L 39 38.972656 L 0 38.972656 Z M 0 0.0273438 " clip-rule="nonzero"/></clipPath><clipPath id="93ca3b3791"><path d="M 8.515625 5.214844 L 12.257812 5.214844 L 12.257812 8.960938 L 8.515625 8.960938 Z M 8.515625 5.214844 " clip-rule="nonzero"/></clipPath><clipPath id="93ecc83d63"><path d="M 10.386719 5.214844 C 9.351562 5.214844 8.515625 6.054688 8.515625 7.089844 C 8.515625 8.121094 9.351562 8.960938 10.386719 8.960938 C 11.421875 8.960938 12.257812 8.121094 12.257812 7.089844 C 12.257812 6.054688 11.421875 5.214844 10.386719 5.214844 " clip-rule="nonzero"/></clipPath><clipPath id="2515b975bb"><path d="M 23.714844 5.53125 L 27.460938 5.53125 L 27.460938 9.273438 L 23.714844 9.273438 Z M 23.714844 5.53125 " clip-rule="nonzero"/></clipPath><clipPath id="eaebb6f8bb"><path d="M 25.589844 5.53125 C 24.554688 5.53125 23.714844 6.367188 23.714844 7.402344 C 23.714844 8.433594 24.554688 9.273438 25.589844 9.273438 C 26.621094 9.273438 27.460938 8.433594 27.460938 7.402344 C 27.460938 6.367188 26.621094 5.53125 25.589844 5.53125 " clip-rule="nonzero"/></clipPath><clipPath id="ee5d3afe23"><path d="M 28.671875 11.96875 L 32.414062 11.96875 L 32.414062 15.710938 L 28.671875 15.710938 Z M 28.671875 11.96875 " clip-rule="nonzero"/></clipPath><clipPath id="4cc63d77ba"><path d="M 30.542969 11.96875 C 29.507812 11.96875 28.671875 12.804688 28.671875 13.839844 C 28.671875 14.871094 29.507812 15.710938 30.542969 15.710938 C 31.578125 15.710938 32.414062 14.871094 32.414062 13.839844 C 32.414062 12.804688 31.578125 11.96875 30.542969 11.96875 " clip-rule="nonzero"/></clipPath><clipPath id="92c8b1b81a"><path d="M 21.21875 12.613281 L 24.960938 12.613281 L 24.960938 16.355469 L 21.21875 16.355469 Z M 21.21875 12.613281 " clip-rule="nonzero"/></clipPath><clipPath id="8e3dfbd579"><path d="M 23.089844 12.613281 C 22.054688 12.613281 21.21875 13.449219 21.21875 14.484375 C 21.21875 15.515625 22.054688 16.355469 23.089844 16.355469 C 24.121094 16.355469 24.960938 15.515625 24.960938 14.484375 C 24.960938 13.449219 24.121094 12.613281 23.089844 12.613281 " clip-rule="nonzero"/></clipPath><clipPath id="348380729a"><path d="M 8.515625 12.613281 L 12.257812 12.613281 L 12.257812 16.355469 L 8.515625 16.355469 Z M 8.515625 12.613281 " clip-rule="nonzero"/></clipPath><clipPath id="d4862c422c"><path d="M 10.386719 12.613281 C 9.351562 12.613281 8.515625 13.449219 8.515625 14.484375 C 8.515625 15.515625 9.351562 16.355469 10.386719 16.355469 C 11.421875 16.355469 12.257812 15.515625 12.257812 14.484375 C 12.257812 13.449219 11.421875 12.613281 10.386719 12.613281 " clip-rule="nonzero"/></clipPath><clipPath id="a3839561a6"><path d="M 8.515625 30.09375 L 12.257812 30.09375 L 12.257812 33.839844 L 8.515625 33.839844 Z M 8.515625 30.09375 " clip-rule="nonzero"/></clipPath><clipPath id="3d96438255"><path d="M 10.386719 30.09375 C 9.351562 30.09375 8.515625 30.933594 8.515625 31.964844 C 8.515625 33 9.351562 33.839844 10.386719 33.839844 C 11.421875 33.839844 12.257812 33 12.257812 31.964844 C 12.257812 30.933594 11.421875 30.09375 10.386719 30.09375 " clip-rule="nonzero"/></clipPath><clipPath id="df71e3a209"><path d="M 21.84375 20.015625 L 25.589844 20.015625 L 25.589844 23.757812 L 21.84375 23.757812 Z M 21.84375 20.015625 " clip-rule="nonzero"/></clipPath><clipPath id="b5e27e3662"><path d="M 23.714844 20.015625 C 22.683594 20.015625 21.84375 20.851562 21.84375 21.886719 C 21.84375 22.921875 22.683594 23.757812 23.714844 23.757812 C 24.75 23.757812 25.589844 22.921875 25.589844 21.886719 C 25.589844 20.851562 24.75 20.015625 23.714844 20.015625 " clip-rule="nonzero"/></clipPath><clipPath id="1e37efa149"><path d="M 27.121094 30.09375 L 30.863281 30.09375 L 30.863281 33.839844 L 27.121094 33.839844 Z M 27.121094 30.09375 " clip-rule="nonzero"/></clipPath><clipPath id="02d8a5ce5e"><path d="M 28.992188 30.09375 C 27.957031 30.09375 27.121094 30.933594 27.121094 31.964844 C 27.121094 33 27.957031 33.839844 28.992188 33.839844 C 30.027344 33.839844 30.863281 33 30.863281 31.964844 C 30.863281 30.933594 30.027344 30.09375 28.992188 30.09375 " clip-rule="nonzero"/></clipPath><clipPath id="53fdf0bae6"><path d="M 16.03125 20.015625 L 19.777344 20.015625 L 19.777344 23.757812 L 16.03125 23.757812 Z M 16.03125 20.015625 " clip-rule="nonzero"/></clipPath><clipPath id="12b5cb2e9b"><path d="M 17.902344 20.015625 C 16.871094 20.015625 16.03125 20.851562 16.03125 21.886719 C 16.03125 22.921875 16.871094 23.757812 17.902344 23.757812 C 18.9375 23.757812 19.777344 22.921875 19.777344 21.886719 C 19.777344 20.851562 18.9375 20.015625 17.902344 20.015625 " clip-rule="nonzero"/></clipPath><clipPath id="fb7b13fe39"><path d="M 23 21 L 30 21 L 30 33 L 23 33 Z M 23 21 " clip-rule="nonzero"/></clipPath><clipPath id="3c86d5fb0c"><path d="M 23.984375 21.125 L 29.597656 32.570312 L 28.925781 32.902344 L 23.3125 21.453125 Z M 23.984375 21.125 " clip-rule="nonzero"/></clipPath><clipPath id="fe4dc15c3c"><path d="M 23.984375 21.125 L 29.597656 32.570312 L 28.925781 32.902344 L 23.3125 21.453125 Z M 23.984375 21.125 " clip-rule="nonzero"/></clipPath><clipPath id="d81a669dba"><path d="M 23 13 L 31 13 L 31 23 L 23 23 Z M 23 13 " clip-rule="nonzero"/></clipPath><clipPath id="63b01e1de1"><path d="M 31.125 13.78125 L 23.8125 22.332031 L 23.242188 21.84375 L 30.554688 13.292969 Z M 31.125 13.78125 " clip-rule="nonzero"/></clipPath><clipPath id="3981d6c8fa"><path d="M 31.125 13.78125 L 23.8125 22.332031 L 23.242188 21.84375 L 30.554688 13.292969 Z M 31.125 13.78125 " clip-rule="nonzero"/></clipPath><clipPath id="353f1b9018"><path d="M 25 7 L 31 7 L 31 14 L 25 14 Z M 25 7 " clip-rule="nonzero"/></clipPath><clipPath id="e651117a88"><path d="M 25.800781 6.890625 L 30.742188 13.496094 L 30.144531 13.945312 L 25.199219 7.339844 Z M 25.800781 6.890625 " clip-rule="nonzero"/></clipPath><clipPath id="4a75d2ebcc"><path d="M 25.800781 6.890625 L 32.539062 15.898438 L 31.941406 16.347656 L 25.199219 7.339844 Z M 25.800781 6.890625 " clip-rule="nonzero"/></clipPath><clipPath id="b3591c4668"><path d="M 17.058594 21.605469 L 24.558594 21.605469 L 24.558594 22.355469 L 17.058594 22.355469 Z M 17.058594 21.605469 " clip-rule="nonzero"/></clipPath><clipPath id="60196f5c6e"><path d="M 34.921875 23.652344 L 10.984375 21.902344 L 11.09375 20.40625 L 35.03125 22.15625 Z M 34.921875 23.652344 " clip-rule="nonzero"/></clipPath><clipPath id="3efa4634a8"><path d="M 10.070312 6.902344 L 25.820312 6.902344 L 25.820312 7.652344 L 10.070312 7.652344 Z M 10.070312 6.902344 " clip-rule="nonzero"/></clipPath><clipPath id="554f33cb6f"><path d="M 10.003906 15.394531 L 10.753906 15.394531 L 10.753906 31.144531 L 10.003906 31.144531 Z M 10.003906 15.394531 " clip-rule="nonzero"/></clipPath><clipPath id="6b0f7f6313"><path d="M 10.550781 14.105469 L 23.300781 14.105469 L 23.300781 14.855469 L 10.550781 14.855469 Z M 10.550781 14.105469 " clip-rule="nonzero"/></clipPath></defs><g fill="#e14d2a" fill-opacity="1"><g transform="translate(45.599994, 28.527384)"><g><path d="M 9.015625 -19.765625 L 1.398438 -19.765625 L 1.398438 0 L 6.160156 0 L 6.160156 -6.636719 L 6.945312 -6.636719 L 11.03125 0 L 16.125 0 L 16.125 -0.894531 L 11.925781 -7.113281 C 14.503906 -8.34375 15.761719 -10.863281 15.761719 -13.242188 C 15.761719 -16.492188 13.496094 -19.765625 9.015625 -19.765625 Z M 8.902344 -10.976562 L 6.160156 -10.976562 L 6.160156 -15.175781 L 8.902344 -15.175781 C 10.359375 -15.175781 11.085938 -14.082031 11.085938 -13.046875 C 11.085938 -12.039062 10.332031 -10.976562 8.902344 -10.976562 Z M 8.902344 -10.976562 "/></g></g></g><g fill="#e14d2a" fill-opacity="1"><g transform="translate(62.621671, 28.527384)"><g><path d="M 8.0625 -19.820312 L 0.222656 0 L 5.347656 0 L 6.4375 -2.882812 L 13.128906 -2.882812 L 14.222656 0 L 19.625 0 L 11.480469 -19.820312 Z M 9.800781 -11.925781 L 11.3125 -7.671875 L 11.421875 -7.335938 L 8.175781 -7.335938 L 8.34375 -7.785156 Z M 9.800781 -11.925781 "/></g></g></g><g fill="#e14d2a" fill-opacity="1"><g transform="translate(82.219001, 28.527384)"><g><path d="M 0.476562 -19.597656 L 0.476562 -18.703125 L 8.007812 0.0546875 L 11.480469 0.0546875 L 19.039062 -18.898438 L 19.039062 -19.597656 L 14.167969 -19.597656 L 10.917969 -11.421875 L 9.769531 -7.644531 L 8.625 -11.421875 L 5.375 -19.597656 Z M 0.476562 -19.597656 "/></g></g></g><g fill="#000000" fill-opacity="1"><g transform="translate(101.334363, 28.527384)"><g/></g></g><g fill="#e14d2a" fill-opacity="1"><g transform="translate(108.353894, 28.527384)"><g><path d="M 1.398438 -19.597656 L 1.398438 0 L 14.417969 0 L 14.417969 -4.621094 L 6.1875 -4.621094 L 6.1875 -19.597656 Z M 1.398438 -19.597656 "/></g></g></g><g fill="#e14d2a" fill-opacity="1"><g transform="translate(123.779784, 28.527384)"><g><path d="M 12.488281 0 L 12.488281 -4.285156 L 9.238281 -4.285156 L 9.238281 -15.34375 L 12.488281 -15.34375 L 12.488281 -19.710938 L 1.203125 -19.710938 L 1.203125 -15.34375 L 4.453125 -15.34375 L 4.453125 -4.285156 L 1.203125 -4.285156 L 1.203125 0 Z M 12.488281 0 "/></g></g></g><g fill="#e14d2a" fill-opacity="1"><g transform="translate(137.32993, 28.527384)"><g><path d="M 11.871094 -19.597656 L 11.871094 -9.800781 L 5.09375 -19.597656 L 1.398438 -19.597656 L 1.398438 0 L 6.160156 0 L 6.160156 -9.546875 L 12.851562 0 L 16.601562 0 L 16.601562 -19.597656 Z M 11.871094 -19.597656 "/></g></g></g><g fill="#e14d2a" fill-opacity="1"><g transform="translate(155.415461, 28.527384)"><g><path d="M 12.066406 0 L 18.003906 0 L 18.003906 -0.253906 L 10.414062 -9.855469 L 17.359375 -19.316406 L 17.359375 -19.597656 L 11.675781 -19.597656 L 6.242188 -11.984375 L 6.242188 -19.597656 L 1.457031 -19.597656 L 1.457031 0 L 6.242188 0 L 6.242188 -7.585938 Z M 12.066406 0 "/></g></g></g><g clip-path="url(#57b9f28390)"><path fill="#e14d2a" d="M 39 19.527344 C 39 20.167969 38.96875 20.804688 38.90625 21.4375 C 38.84375 22.074219 38.75 22.707031 38.625 23.332031 C 38.5 23.957031 38.347656 24.578125 38.160156 25.1875 C 37.976562 25.800781 37.761719 26.398438 37.515625 26.988281 C 37.269531 27.578125 37 28.15625 36.699219 28.71875 C 36.394531 29.28125 36.070312 29.828125 35.714844 30.359375 C 35.359375 30.890625 34.980469 31.40625 34.574219 31.898438 C 34.167969 32.390625 33.738281 32.863281 33.289062 33.316406 C 32.835938 33.765625 32.363281 34.195312 31.871094 34.601562 C 31.378906 35.007812 30.863281 35.386719 30.332031 35.742188 C 29.800781 36.097656 29.253906 36.421875 28.691406 36.726562 C 28.128906 37.027344 27.550781 37.296875 26.960938 37.542969 C 26.371094 37.789062 25.773438 38.003906 25.160156 38.1875 C 24.550781 38.375 23.929688 38.527344 23.304688 38.652344 C 22.679688 38.777344 22.046875 38.871094 21.410156 38.933594 C 20.777344 38.996094 20.136719 39.027344 19.5 39.027344 C 18.863281 39.027344 18.222656 38.996094 17.589844 38.933594 C 16.953125 38.871094 16.320312 38.777344 15.695312 38.652344 C 15.070312 38.527344 14.449219 38.375 13.839844 38.1875 C 13.226562 38.003906 12.628906 37.789062 12.039062 37.542969 C 11.449219 37.296875 10.871094 37.027344 10.308594 36.726562 C 9.746094 36.421875 9.199219 36.097656 8.667969 35.742188 C 8.136719 35.386719 7.621094 35.007812 7.128906 34.601562 C 6.636719 34.195312 6.164062 33.765625 5.710938 33.316406 C 5.261719 32.863281 4.832031 32.390625 4.425781 31.898438 C 4.019531 31.40625 3.640625 30.890625 3.285156 30.359375 C 2.929688 29.828125 2.605469 29.28125 2.300781 28.71875 C 2 28.15625 1.730469 27.578125 1.484375 26.988281 C 1.238281 26.398438 1.023438 25.800781 0.839844 25.1875 C 0.652344 24.578125 0.5 23.957031 0.375 23.332031 C 0.25 22.707031 0.15625 22.074219 0.09375 21.4375 C 0.03125 20.804688 0 20.167969 0 19.527344 C 0 18.890625 0.03125 18.25 0.09375 17.617188 C 0.15625 16.980469 0.25 16.347656 0.375 15.722656 C 0.5 15.097656 0.652344 14.476562 0.839844 13.867188 C 1.023438 13.253906 1.238281 12.65625 1.484375 12.066406 C 1.730469 11.476562 2 10.898438 2.300781 10.335938 C 2.605469 9.773438 2.929688 9.226562 3.285156 8.695312 C 3.640625 8.164062 4.019531 7.652344 4.425781 7.15625 C 4.832031 6.664062 5.261719 6.191406 5.710938 5.738281 C 6.164062 5.289062 6.636719 4.859375 7.128906 4.453125 C 7.621094 4.046875 8.136719 3.667969 8.667969 3.3125 C 9.199219 2.957031 9.746094 2.632812 10.308594 2.328125 C 10.871094 2.027344 11.449219 1.757812 12.039062 1.511719 C 12.628906 1.265625 13.226562 1.050781 13.839844 0.867188 C 14.449219 0.683594 15.070312 0.527344 15.695312 0.402344 C 16.320312 0.277344 16.953125 0.183594 17.589844 0.121094 C 18.222656 0.0585938 18.863281 0.0273438 19.5 0.0273438 C 20.136719 0.0273438 20.777344 0.0585938 21.410156 0.121094 C 22.046875 0.183594 22.679688 0.277344 23.304688 0.402344 C 23.929688 0.527344 24.550781 0.683594 25.160156 0.867188 C 25.773438 1.050781 26.371094 1.265625 26.960938 1.511719 C 27.550781 1.757812 28.128906 2.027344 28.691406 2.328125 C 29.253906 2.632812 29.800781 2.957031 30.332031 3.3125 C 30.863281 3.667969 31.378906 4.046875 31.871094 4.453125 C 32.363281 4.859375 32.835938 5.289062 33.289062 5.738281 C 33.738281 6.191406 34.167969 6.664062 34.574219 7.15625 C 34.980469 7.652344 35.359375 8.164062 35.714844 8.695312 C 36.070312 9.226562 36.394531 9.773438 36.699219 10.335938 C 37 10.898438 37.269531 11.476562 37.515625 12.066406 C 37.761719 12.65625 37.976562 13.253906 38.160156 13.867188 C 38.347656 14.476562 38.5 15.097656 38.625 15.722656 C 38.75 16.347656 38.84375 16.980469 38.90625 17.617188 C 38.96875 18.25 39 18.890625 39 19.527344 Z M 39 19.527344 " fill-opacity="1" fill-rule="nonzero"/></g><g clip-path="url(#93ca3b3791)"><g clip-path="url(#93ecc83d63)"><path fill="#ffffff" d="M 8.515625 5.214844 L 12.257812 5.214844 L 12.257812 8.960938 L 8.515625 8.960938 Z M 8.515625 5.214844 " fill-opacity="1" fill-rule="nonzero"/></g></g><g clip-path="url(#2515b975bb)"><g clip-path="url(#eaebb6f8bb)"><path fill="#ffffff" d="M 23.714844 5.53125 L 27.460938 5.53125 L 27.460938 9.273438 L 23.714844 9.273438 Z M 23.714844 5.53125 " fill-opacity="1" fill-rule="nonzero"/></g></g><g clip-path="url(#ee5d3afe23)"><g clip-path="url(#4cc63d77ba)"><path fill="#ffffff" d="M 28.671875 11.96875 L 32.414062 11.96875 L 32.414062 15.710938 L 28.671875 15.710938 Z M 28.671875 11.96875 " fill-opacity="1" fill-rule="nonzero"/></g></g><g clip-path="url(#92c8b1b81a)"><g clip-path="url(#8e3dfbd579)"><path fill="#ffffff" d="M 21.21875 12.613281 L 24.960938 12.613281 L 24.960938 16.355469 L 21.21875 16.355469 Z M 21.21875 12.613281 " fill-opacity="1" fill-rule="nonzero"/></g></g><g clip-path="url(#348380729a)"><g clip-path="url(#d4862c422c)"><path fill="#ffffff" d="M 8.515625 12.613281 L 12.257812 12.613281 L 12.257812 16.355469 L 8.515625 16.355469 Z M 8.515625 12.613281 " fill-opacity="1" fill-rule="nonzero"/></g></g><g clip-path="url(#a3839561a6)"><g clip-path="url(#3d96438255)"><path fill="#ffffff" d="M 8.515625 30.09375 L 12.257812 30.09375 L 12.257812 33.839844 L 8.515625 33.839844 Z M 8.515625 30.09375 " fill-opacity="1" fill-rule="nonzero"/></g></g><g clip-path="url(#df71e3a209)"><g clip-path="url(#b5e27e3662)"><path fill="#ffffff" d="M 21.84375 20.015625 L 25.589844 20.015625 L 25.589844 23.757812 L 21.84375 23.757812 Z M 21.84375 20.015625 " fill-opacity="1" fill-rule="nonzero"/></g></g><g clip-path="url(#1e37efa149)"><g clip-path="url(#02d8a5ce5e)"><path fill="#ffffff" d="M 27.121094 30.09375 L 30.863281 30.09375 L 30.863281 33.839844 L 27.121094 33.839844 Z M 27.121094 30.09375 " fill-opacity="1" fill-rule="nonzero"/></g></g><g clip-path="url(#53fdf0bae6)"><g clip-path="url(#12b5cb2e9b)"><path fill="#ffffff" d="M 16.03125 20.015625 L 19.777344 20.015625 L 19.777344 23.757812 L 16.03125 23.757812 Z M 16.03125 20.015625 " fill-opacity="1" fill-rule="nonzero"/></g></g><g clip-path="url(#fb7b13fe39)"><g clip-path="url(#3c86d5fb0c)"><g clip-path="url(#fe4dc15c3c)"><path fill="#ffffff" d="M 29.355469 32.074219 L 24.226562 21.621094 C 24.125 21.414062 23.894531 21.320312 23.707031 21.410156 C 23.523438 21.503906 23.453125 21.742188 23.554688 21.949219 L 28.683594 32.40625 C 28.785156 32.613281 29.015625 32.703125 29.203125 32.613281 C 29.386719 32.523438 29.457031 32.28125 29.355469 32.074219 Z M 29.355469 32.074219 " fill-opacity="1" fill-rule="nonzero"/></g></g></g><g clip-path="url(#d81a669dba)"><g clip-path="url(#63b01e1de1)"><g clip-path="url(#3981d6c8fa)"><path fill="#ffffff" d="M 24.121094 21.972656 L 30.820312 14.136719 C 30.949219 13.984375 30.929688 13.75 30.773438 13.613281 C 30.617188 13.480469 30.378906 13.496094 30.25 13.652344 L 23.550781 21.484375 C 23.417969 21.640625 23.4375 21.875 23.597656 22.007812 C 23.753906 22.140625 23.988281 22.125 24.121094 21.972656 Z M 24.121094 21.972656 " fill-opacity="1" fill-rule="nonzero"/></g></g></g><g clip-path="url(#353f1b9018)"><g clip-path="url(#e651117a88)"><g clip-path="url(#4a75d2ebcc)"><path fill="#ffffff" d="M 32.257812 15.523438 L 26.082031 7.269531 C 25.960938 7.105469 25.726562 7.074219 25.5625 7.199219 C 25.398438 7.324219 25.359375 7.554688 25.484375 7.71875 L 31.65625 15.972656 C 31.78125 16.132812 32.011719 16.164062 32.179688 16.042969 C 32.34375 15.917969 32.378906 15.683594 32.257812 15.523438 Z M 32.257812 15.523438 " fill-opacity="1" fill-rule="nonzero"/></g></g></g><g clip-path="url(#b3591c4668)"><g clip-path="url(#60196f5c6e)"><path fill="#ffffff" d="M 12.003906 21.976562 L 33.902344 23.578125 C 34.332031 23.609375 34.707031 23.300781 34.738281 22.886719 C 34.769531 22.476562 34.441406 22.113281 34.011719 22.082031 L 12.113281 20.480469 C 11.683594 20.449219 11.308594 20.757812 11.277344 21.171875 C 11.246094 21.585938 11.574219 21.945312 12.003906 21.976562 Z M 12.003906 21.976562 " fill-opacity="1" fill-rule="nonzero"/></g></g><g clip-path="url(#3efa4634a8)"><path fill="#ffffff" d="M 5.25 8.054688 L 27.203125 8.054688 C 27.636719 8.054688 27.988281 7.71875 27.988281 7.304688 C 27.988281 6.890625 27.636719 6.554688 27.203125 6.554688 L 5.25 6.554688 C 4.816406 6.554688 4.464844 6.890625 4.464844 7.304688 C 4.464844 7.71875 4.816406 8.054688 5.25 8.054688 Z M 5.25 8.054688 " fill-opacity="1" fill-rule="nonzero"/></g><g clip-path="url(#554f33cb6f)"><path fill="#ffffff" d="M 9.601562 10.574219 L 9.601562 32.527344 C 9.601562 32.960938 9.9375 33.3125 10.351562 33.3125 C 10.765625 33.3125 11.101562 32.960938 11.101562 32.527344 L 11.101562 10.574219 C 11.101562 10.140625 10.765625 9.789062 10.351562 9.789062 C 9.9375 9.789062 9.601562 10.140625 9.601562 10.574219 Z M 9.601562 10.574219 " fill-opacity="1" fill-rule="nonzero"/></g><g clip-path="url(#6b0f7f6313)"><path fill="#ffffff" d="M 5.25 15.273438 L 27.207031 15.273438 C 27.640625 15.273438 27.992188 14.9375 27.992188 14.523438 C 27.992188 14.109375 27.640625 13.773438 27.207031 13.773438 L 5.25 13.773438 C 4.820312 13.773438 4.46875 14.109375 4.46875 14.523438 C 4.46875 14.9375 4.820312 15.273438 5.25 15.273438 Z M 5.25 15.273438 " fill-opacity="1" fill-rule="nonzero"/></g></svg>