<svg xmlns="http://www.w3.org/2000/svg" xmlns:xlink="http://www.w3.org/1999/xlink" width="237" zoomAndPan="magnify" viewBox="0 0 177.75 38.999999" height="52" preserveAspectRatio="xMidYMid meet" version="1.0"><defs><g/><clipPath id="99ca21e79d"><path d="M 0 0.0273438 L 39 0.0273438 L 39 38.972656 L 0 38.972656 Z M 0 0.0273438 " clip-rule="nonzero"/></clipPath><clipPath id="b9c576e7d5"><path d="M 8.515625 5.214844 L 12.257812 5.214844 L 12.257812 8.960938 L 8.515625 8.960938 Z M 8.515625 5.214844 " clip-rule="nonzero"/></clipPath><clipPath id="9a3d50a37f"><path d="M 10.386719 5.214844 C 9.351562 5.214844 8.515625 6.054688 8.515625 7.089844 C 8.515625 8.121094 9.351562 8.960938 10.386719 8.960938 C 11.421875 8.960938 12.257812 8.121094 12.257812 7.089844 C 12.257812 6.054688 11.421875 5.214844 10.386719 5.214844 " clip-rule="nonzero"/></clipPath><clipPath id="460ea00a19"><path d="M 23.714844 5.53125 L 27.460938 5.53125 L 27.460938 9.273438 L 23.714844 9.273438 Z M 23.714844 5.53125 " clip-rule="nonzero"/></clipPath><clipPath id="a6991fd659"><path d="M 25.589844 5.53125 C 24.554688 5.53125 23.714844 6.367188 23.714844 7.402344 C 23.714844 8.433594 24.554688 9.273438 25.589844 9.273438 C 26.621094 9.273438 27.460938 8.433594 27.460938 7.402344 C 27.460938 6.367188 26.621094 5.53125 25.589844 5.53125 " clip-rule="nonzero"/></clipPath><clipPath id="e7b39485b3"><path d="M 28.671875 11.96875 L 32.414062 11.96875 L 32.414062 15.710938 L 28.671875 15.710938 Z M 28.671875 11.96875 " clip-rule="nonzero"/></clipPath><clipPath id="c639908a33"><path d="M 30.542969 11.96875 C 29.507812 11.96875 28.671875 12.804688 28.671875 13.839844 C 28.671875 14.871094 29.507812 15.710938 30.542969 15.710938 C 31.578125 15.710938 32.414062 14.871094 32.414062 13.839844 C 32.414062 12.804688 31.578125 11.96875 30.542969 11.96875 " clip-rule="nonzero"/></clipPath><clipPath id="2e6b41b81e"><path d="M 21.21875 12.613281 L 24.960938 12.613281 L 24.960938 16.355469 L 21.21875 16.355469 Z M 21.21875 12.613281 " clip-rule="nonzero"/></clipPath><clipPath id="b254cfc5ac"><path d="M 23.089844 12.613281 C 22.054688 12.613281 21.21875 13.449219 21.21875 14.484375 C 21.21875 15.515625 22.054688 16.355469 23.089844 16.355469 C 24.121094 16.355469 24.960938 15.515625 24.960938 14.484375 C 24.960938 13.449219 24.121094 12.613281 23.089844 12.613281 " clip-rule="nonzero"/></clipPath><clipPath id="f11e095f99"><path d="M 8.515625 12.613281 L 12.257812 12.613281 L 12.257812 16.355469 L 8.515625 16.355469 Z M 8.515625 12.613281 " clip-rule="nonzero"/></clipPath><clipPath id="30af22c054"><path d="M 10.386719 12.613281 C 9.351562 12.613281 8.515625 13.449219 8.515625 14.484375 C 8.515625 15.515625 9.351562 16.355469 10.386719 16.355469 C 11.421875 16.355469 12.257812 15.515625 12.257812 14.484375 C 12.257812 13.449219 11.421875 12.613281 10.386719 12.613281 " clip-rule="nonzero"/></clipPath><clipPath id="4a0f23523f"><path d="M 8.515625 30.09375 L 12.257812 30.09375 L 12.257812 33.839844 L 8.515625 33.839844 Z M 8.515625 30.09375 " clip-rule="nonzero"/></clipPath><clipPath id="7625ac667d"><path d="M 10.386719 30.09375 C 9.351562 30.09375 8.515625 30.933594 8.515625 31.964844 C 8.515625 33 9.351562 33.839844 10.386719 33.839844 C 11.421875 33.839844 12.257812 33 12.257812 31.964844 C 12.257812 30.933594 11.421875 30.09375 10.386719 30.09375 " clip-rule="nonzero"/></clipPath><clipPath id="82c5dbaad6"><path d="M 21.84375 20.015625 L 25.589844 20.015625 L 25.589844 23.757812 L 21.84375 23.757812 Z M 21.84375 20.015625 " clip-rule="nonzero"/></clipPath><clipPath id="8e54c7d6b1"><path d="M 23.714844 20.015625 C 22.683594 20.015625 21.84375 20.851562 21.84375 21.886719 C 21.84375 22.921875 22.683594 23.757812 23.714844 23.757812 C 24.75 23.757812 25.589844 22.921875 25.589844 21.886719 C 25.589844 20.851562 24.75 20.015625 23.714844 20.015625 " clip-rule="nonzero"/></clipPath><clipPath id="f3a95a0219"><path d="M 27.121094 30.09375 L 30.863281 30.09375 L 30.863281 33.839844 L 27.121094 33.839844 Z M 27.121094 30.09375 " clip-rule="nonzero"/></clipPath><clipPath id="57c9429b54"><path d="M 28.992188 30.09375 C 27.957031 30.09375 27.121094 30.933594 27.121094 31.964844 C 27.121094 33 27.957031 33.839844 28.992188 33.839844 C 30.027344 33.839844 30.863281 33 30.863281 31.964844 C 30.863281 30.933594 30.027344 30.09375 28.992188 30.09375 " clip-rule="nonzero"/></clipPath><clipPath id="27b53530f7"><path d="M 16.03125 20.015625 L 19.777344 20.015625 L 19.777344 23.757812 L 16.03125 23.757812 Z M 16.03125 20.015625 " clip-rule="nonzero"/></clipPath><clipPath id="d9da8610a9"><path d="M 17.902344 20.015625 C 16.871094 20.015625 16.03125 20.851562 16.03125 21.886719 C 16.03125 22.921875 16.871094 23.757812 17.902344 23.757812 C 18.9375 23.757812 19.777344 22.921875 19.777344 21.886719 C 19.777344 20.851562 18.9375 20.015625 17.902344 20.015625 " clip-rule="nonzero"/></clipPath><clipPath id="147db5a651"><path d="M 23 21 L 30 21 L 30 34 L 23 34 Z M 23 21 " clip-rule="nonzero"/></clipPath><clipPath id="417f667337"><path d="M 23.988281 21.125 L 29.757812 32.886719 L 28.984375 33.265625 L 23.214844 21.5 Z M 23.988281 21.125 " clip-rule="nonzero"/></clipPath><clipPath id="7c322b90c5"><path d="M 23.988281 21.125 L 29.757812 32.886719 L 28.984375 33.265625 L 23.214844 21.5 Z M 23.988281 21.125 " clip-rule="nonzero"/></clipPath><clipPath id="cb1c766582"><path d="M 23 13 L 31 13 L 31 23 L 23 23 Z M 23 13 " clip-rule="nonzero"/></clipPath><clipPath id="514021ffb2"><path d="M 31.132812 13.777344 L 23.679688 22.492188 L 23.089844 21.984375 L 30.539062 13.269531 Z M 31.132812 13.777344 " clip-rule="nonzero"/></clipPath><clipPath id="d083f4761d"><path d="M 31.132812 13.777344 L 23.679688 22.492188 L 23.089844 21.984375 L 30.539062 13.269531 Z M 31.132812 13.777344 " clip-rule="nonzero"/></clipPath><clipPath id="74629bbce6"><path d="M 25 7 L 31 7 L 31 14 L 25 14 Z M 25 7 " clip-rule="nonzero"/></clipPath><clipPath id="95c4b556e8"><path d="M 25.800781 6.890625 L 30.519531 13.199219 L 29.898438 13.667969 L 25.175781 7.359375 Z M 25.800781 6.890625 " clip-rule="nonzero"/></clipPath><clipPath id="c11e72bd71"><path d="M 25.800781 6.890625 L 32.671875 16.070312 L 32.046875 16.539062 L 25.175781 7.359375 Z M 25.800781 6.890625 " clip-rule="nonzero"/></clipPath><clipPath id="f77b21c05c"><path d="M 17.15625 21.574219 L 24.566406 21.574219 L 24.566406 22.355469 L 17.15625 22.355469 Z M 17.15625 21.574219 " clip-rule="nonzero"/></clipPath><clipPath id="7b2d9f8540"><path d="M 34.929688 23.652344 L 10.738281 21.886719 L 10.851562 20.328125 L 35.042969 22.097656 Z M 34.929688 23.652344 " clip-rule="nonzero"/></clipPath><clipPath id="1a4b4416de"><path d="M 10.382812 6.875 L 25.824219 6.875 L 25.824219 7.65625 L 10.382812 7.65625 Z M 10.382812 6.875 " clip-rule="nonzero"/></clipPath><clipPath id="3a8174ecb8"><path d="M 10.003906 15.707031 L 10.785156 15.707031 L 10.785156 31.148438 L 10.003906 31.148438 Z M 10.003906 15.707031 " clip-rule="nonzero"/></clipPath><clipPath id="0cf18051b8"><path d="M 10.355469 14.160156 L 23.304688 14.160156 L 23.304688 14.863281 L 10.355469 14.863281 Z M 10.355469 14.160156 " clip-rule="nonzero"/></clipPath></defs><g fill="#e14d2a" fill-opacity="1"><g transform="translate(45.576557, 28.527384)"><g><path d="M 9.015625 -19.765625 L 1.398438 -19.765625 L 1.398438 0 L 6.160156 0 L 6.160156 -6.636719 L 6.945312 -6.636719 L 11.03125 0 L 16.125 0 L 16.125 -0.894531 L 11.925781 -7.113281 C 14.503906 -8.34375 15.761719 -10.863281 15.761719 -13.242188 C 15.761719 -16.492188 13.496094 -19.765625 9.015625 -19.765625 Z M 8.902344 -10.976562 L 6.160156 -10.976562 L 6.160156 -15.175781 L 8.902344 -15.175781 C 10.359375 -15.175781 11.085938 -14.082031 11.085938 -13.046875 C 11.085938 -12.039062 10.332031 -10.976562 8.902344 -10.976562 Z M 8.902344 -10.976562 "/></g></g></g><g fill="#e14d2a" fill-opacity="1"><g transform="translate(62.598234, 28.527384)"><g><path d="M 8.0625 -19.820312 L 0.222656 0 L 5.347656 0 L 6.4375 -2.882812 L 13.128906 -2.882812 L 14.222656 0 L 19.625 0 L 11.480469 -19.820312 Z M 9.800781 -11.925781 L 11.3125 -7.671875 L 11.421875 -7.335938 L 8.175781 -7.335938 L 8.34375 -7.785156 Z M 9.800781 -11.925781 "/></g></g></g><g fill="#e14d2a" fill-opacity="1"><g transform="translate(82.195564, 28.527384)"><g><path d="M 0.476562 -19.597656 L 0.476562 -18.703125 L 8.007812 0.0546875 L 11.480469 0.0546875 L 19.039062 -18.898438 L 19.039062 -19.597656 L 14.167969 -19.597656 L 10.917969 -11.421875 L 9.769531 -7.644531 L 8.625 -11.421875 L 5.375 -19.597656 Z M 0.476562 -19.597656 "/></g></g></g><g fill="#000000" fill-opacity="1"><g transform="translate(101.322644, 28.527384)"><g/></g></g><g fill="#001253" fill-opacity="1"><g transform="translate(108.353894, 28.527384)"><g><path d="M 1.398438 -19.597656 L 1.398438 0 L 14.417969 0 L 14.417969 -4.621094 L 6.1875 -4.621094 L 6.1875 -19.597656 Z M 1.398438 -19.597656 "/></g></g></g><g fill="#001253" fill-opacity="1"><g transform="translate(123.779784, 28.527384)"><g><path d="M 12.488281 0 L 12.488281 -4.285156 L 9.238281 -4.285156 L 9.238281 -15.34375 L 12.488281 -15.34375 L 12.488281 -19.710938 L 1.203125 -19.710938 L 1.203125 -15.34375 L 4.453125 -15.34375 L 4.453125 -4.285156 L 1.203125 -4.285156 L 1.203125 0 Z M 12.488281 0 "/></g></g></g><g fill="#001253" fill-opacity="1"><g transform="translate(137.32993, 28.527384)"><g><path d="M 11.871094 -19.597656 L 11.871094 -9.800781 L 5.09375 -19.597656 L 1.398438 -19.597656 L 1.398438 0 L 6.160156 0 L 6.160156 -9.546875 L 12.851562 0 L 16.601562 0 L 16.601562 -19.597656 Z M 11.871094 -19.597656 "/></g></g></g><g fill="#001253" fill-opacity="1"><g transform="translate(155.415461, 28.527384)"><g><path d="M 12.066406 0 L 18.003906 0 L 18.003906 -0.253906 L 10.414062 -9.855469 L 17.359375 -19.316406 L 17.359375 -19.597656 L 11.675781 -19.597656 L 6.242188 -11.984375 L 6.242188 -19.597656 L 1.457031 -19.597656 L 1.457031 0 L 6.242188 0 L 6.242188 -7.585938 Z M 12.066406 0 "/></g></g></g><g clip-path="url(#99ca21e79d)"><path fill="#001253" d="M 39 19.527344 C 39 20.167969 38.96875 20.804688 38.90625 21.4375 C 38.84375 22.074219 38.75 22.707031 38.625 23.332031 C 38.5 23.957031 38.347656 24.578125 38.160156 25.1875 C 37.976562 25.800781 37.761719 26.398438 37.515625 26.988281 C 37.269531 27.578125 37 28.15625 36.699219 28.71875 C 36.394531 29.28125 36.070312 29.828125 35.714844 30.359375 C 35.359375 30.890625 34.980469 31.40625 34.574219 31.898438 C 34.167969 32.390625 33.738281 32.863281 33.289062 33.316406 C 32.835938 33.765625 32.363281 34.195312 31.871094 34.601562 C 31.378906 35.007812 30.863281 35.386719 30.332031 35.742188 C 29.800781 36.097656 29.253906 36.421875 28.691406 36.726562 C 28.128906 37.027344 27.550781 37.296875 26.960938 37.542969 C 26.371094 37.789062 25.773438 38.003906 25.160156 38.1875 C 24.550781 38.375 23.929688 38.527344 23.304688 38.652344 C 22.679688 38.777344 22.046875 38.871094 21.410156 38.933594 C 20.777344 38.996094 20.136719 39.027344 19.5 39.027344 C 18.863281 39.027344 18.222656 38.996094 17.589844 38.933594 C 16.953125 38.871094 16.320312 38.777344 15.695312 38.652344 C 15.070312 38.527344 14.449219 38.375 13.839844 38.1875 C 13.226562 38.003906 12.628906 37.789062 12.039062 37.542969 C 11.449219 37.296875 10.871094 37.027344 10.308594 36.726562 C 9.746094 36.421875 9.199219 36.097656 8.667969 35.742188 C 8.136719 35.386719 7.621094 35.007812 7.128906 34.601562 C 6.636719 34.195312 6.164062 33.765625 5.710938 33.316406 C 5.261719 32.863281 4.832031 32.390625 4.425781 31.898438 C 4.019531 31.40625 3.640625 30.890625 3.285156 30.359375 C 2.929688 29.828125 2.605469 29.28125 2.300781 28.71875 C 2 28.15625 1.730469 27.578125 1.484375 26.988281 C 1.238281 26.398438 1.023438 25.800781 0.839844 25.1875 C 0.652344 24.578125 0.5 23.957031 0.375 23.332031 C 0.25 22.707031 0.15625 22.074219 0.09375 21.4375 C 0.03125 20.804688 0 20.167969 0 19.527344 C 0 18.890625 0.03125 18.25 0.09375 17.617188 C 0.15625 16.980469 0.25 16.347656 0.375 15.722656 C 0.5 15.097656 0.652344 14.476562 0.839844 13.867188 C 1.023438 13.253906 1.238281 12.65625 1.484375 12.066406 C 1.730469 11.476562 2 10.898438 2.300781 10.335938 C 2.605469 9.773438 2.929688 9.226562 3.285156 8.695312 C 3.640625 8.164062 4.019531 7.652344 4.425781 7.15625 C 4.832031 6.664062 5.261719 6.191406 5.710938 5.738281 C 6.164062 5.289062 6.636719 4.859375 7.128906 4.453125 C 7.621094 4.046875 8.136719 3.667969 8.667969 3.3125 C 9.199219 2.957031 9.746094 2.632812 10.308594 2.328125 C 10.871094 2.027344 11.449219 1.757812 12.039062 1.511719 C 12.628906 1.265625 13.226562 1.050781 13.839844 0.867188 C 14.449219 0.683594 15.070312 0.527344 15.695312 0.402344 C 16.320312 0.277344 16.953125 0.183594 17.589844 0.121094 C 18.222656 0.0585938 18.863281 0.0273438 19.5 0.0273438 C 20.136719 0.0273438 20.777344 0.0585938 21.410156 0.121094 C 22.046875 0.183594 22.679688 0.277344 23.304688 0.402344 C 23.929688 0.527344 24.550781 0.683594 25.160156 0.867188 C 25.773438 1.050781 26.371094 1.265625 26.960938 1.511719 C 27.550781 1.757812 28.128906 2.027344 28.691406 2.328125 C 29.253906 2.632812 29.800781 2.957031 30.332031 3.3125 C 30.863281 3.667969 31.378906 4.046875 31.871094 4.453125 C 32.363281 4.859375 32.835938 5.289062 33.289062 5.738281 C 33.738281 6.191406 34.167969 6.664062 34.574219 7.15625 C 34.980469 7.652344 35.359375 8.164062 35.714844 8.695312 C 36.070312 9.226562 36.394531 9.773438 36.699219 10.335938 C 37 10.898438 37.269531 11.476562 37.515625 12.066406 C 37.761719 12.65625 37.976562 13.253906 38.160156 13.867188 C 38.347656 14.476562 38.5 15.097656 38.625 15.722656 C 38.75 16.347656 38.84375 16.980469 38.90625 17.617188 C 38.96875 18.25 39 18.890625 39 19.527344 Z M 39 19.527344 " fill-opacity="1" fill-rule="nonzero"/></g><g clip-path="url(#b9c576e7d5)"><g clip-path="url(#9a3d50a37f)"><path fill="#ffffff" d="M 8.515625 5.214844 L 12.257812 5.214844 L 12.257812 8.960938 L 8.515625 8.960938 Z M 8.515625 5.214844 " fill-opacity="1" fill-rule="nonzero"/></g></g><g clip-path="url(#460ea00a19)"><g clip-path="url(#a6991fd659)"><path fill="#ffffff" d="M 23.714844 5.53125 L 27.460938 5.53125 L 27.460938 9.273438 L 23.714844 9.273438 Z M 23.714844 5.53125 " fill-opacity="1" fill-rule="nonzero"/></g></g><g clip-path="url(#e7b39485b3)"><g clip-path="url(#c639908a33)"><path fill="#ffffff" d="M 28.671875 11.96875 L 32.414062 11.96875 L 32.414062 15.710938 L 28.671875 15.710938 Z M 28.671875 11.96875 " fill-opacity="1" fill-rule="nonzero"/></g></g><g clip-path="url(#2e6b41b81e)"><g clip-path="url(#b254cfc5ac)"><path fill="#ffffff" d="M 21.21875 12.613281 L 24.960938 12.613281 L 24.960938 16.355469 L 21.21875 16.355469 Z M 21.21875 12.613281 " fill-opacity="1" fill-rule="nonzero"/></g></g><g clip-path="url(#f11e095f99)"><g clip-path="url(#30af22c054)"><path fill="#ffffff" d="M 8.515625 12.613281 L 12.257812 12.613281 L 12.257812 16.355469 L 8.515625 16.355469 Z M 8.515625 12.613281 " fill-opacity="1" fill-rule="nonzero"/></g></g><g clip-path="url(#4a0f23523f)"><g clip-path="url(#7625ac667d)"><path fill="#ffffff" d="M 8.515625 30.09375 L 12.257812 30.09375 L 12.257812 33.839844 L 8.515625 33.839844 Z M 8.515625 30.09375 " fill-opacity="1" fill-rule="nonzero"/></g></g><g clip-path="url(#82c5dbaad6)"><g clip-path="url(#8e54c7d6b1)"><path fill="#ffffff" d="M 21.84375 20.015625 L 25.589844 20.015625 L 25.589844 23.757812 L 21.84375 23.757812 Z M 21.84375 20.015625 " fill-opacity="1" fill-rule="nonzero"/></g></g><g clip-path="url(#f3a95a0219)"><g clip-path="url(#57c9429b54)"><path fill="#ffffff" d="M 27.121094 30.09375 L 30.863281 30.09375 L 30.863281 33.839844 L 27.121094 33.839844 Z M 27.121094 30.09375 " fill-opacity="1" fill-rule="nonzero"/></g></g><g clip-path="url(#27b53530f7)"><g clip-path="url(#d9da8610a9)"><path fill="#ffffff" d="M 16.03125 20.015625 L 19.777344 20.015625 L 19.777344 23.757812 L 16.03125 23.757812 Z M 16.03125 20.015625 " fill-opacity="1" fill-rule="nonzero"/></g></g><g clip-path="url(#147db5a651)"><g clip-path="url(#417f667337)"><g clip-path="url(#7c322b90c5)"><path fill="#ffffff" d="M 29.515625 32.394531 L 24.230469 21.617188 C 24.125 21.40625 23.867188 21.316406 23.65625 21.421875 C 23.441406 21.527344 23.355469 21.785156 23.457031 21.996094 L 28.742188 32.769531 C 28.847656 32.984375 29.105469 33.070312 29.316406 32.96875 C 29.53125 32.863281 29.617188 32.605469 29.515625 32.394531 Z M 29.515625 32.394531 " fill-opacity="1" fill-rule="nonzero"/></g></g></g><g clip-path="url(#cb1c766582)"><g clip-path="url(#514021ffb2)"><g clip-path="url(#d083f4761d)"><path fill="#ffffff" d="M 23.992188 22.128906 L 30.820312 14.140625 C 30.957031 13.984375 30.933594 13.742188 30.769531 13.601562 C 30.605469 13.464844 30.363281 13.476562 30.226562 13.632812 L 23.398438 21.621094 C 23.265625 21.777344 23.289062 22.019531 23.453125 22.160156 C 23.617188 22.300781 23.859375 22.285156 23.992188 22.128906 Z M 23.992188 22.128906 " fill-opacity="1" fill-rule="nonzero"/></g></g></g><g clip-path="url(#74629bbce6)"><g clip-path="url(#95c4b556e8)"><g clip-path="url(#c11e72bd71)"><path fill="#ffffff" d="M 32.382812 15.6875 L 26.089844 7.277344 C 25.964844 7.109375 25.722656 7.078125 25.550781 7.207031 C 25.378906 7.335938 25.339844 7.578125 25.464844 7.742188 L 31.757812 16.15625 C 31.882812 16.320312 32.125 16.351562 32.296875 16.222656 C 32.46875 16.09375 32.507812 15.855469 32.382812 15.6875 Z M 32.382812 15.6875 " fill-opacity="1" fill-rule="nonzero"/></g></g></g><g clip-path="url(#f77b21c05c)"><g clip-path="url(#7b2d9f8540)"><path fill="#ffffff" d="M 11.753906 21.960938 L 33.910156 23.578125 C 34.347656 23.613281 34.726562 23.289062 34.761719 22.859375 C 34.792969 22.429688 34.460938 22.054688 34.027344 22.023438 L 11.867188 20.402344 C 11.433594 20.371094 11.050781 20.695312 11.019531 21.125 C 10.988281 21.554688 11.316406 21.925781 11.753906 21.960938 Z M 11.753906 21.960938 " fill-opacity="1" fill-rule="nonzero"/></g></g><g clip-path="url(#1a4b4416de)"><path fill="#ffffff" d="M 4.996094 8.058594 L 27.210938 8.058594 C 27.648438 8.058594 28.003906 7.710938 28.003906 7.277344 C 28.003906 6.847656 27.648438 6.5 27.210938 6.5 L 4.996094 6.5 C 4.558594 6.5 4.203125 6.847656 4.203125 7.277344 C 4.203125 7.710938 4.558594 8.058594 4.996094 8.058594 Z M 4.996094 8.058594 " fill-opacity="1" fill-rule="nonzero"/></g><g clip-path="url(#3a8174ecb8)"><path fill="#ffffff" d="M 9.601562 10.320312 L 9.601562 32.535156 C 9.601562 32.972656 9.949219 33.328125 10.382812 33.328125 C 10.8125 33.328125 11.160156 32.972656 11.160156 32.535156 L 11.160156 10.320312 C 11.160156 9.882812 10.8125 9.527344 10.382812 9.527344 C 9.949219 9.527344 9.601562 9.882812 9.601562 10.320312 Z M 9.601562 10.320312 " fill-opacity="1" fill-rule="nonzero"/></g><g clip-path="url(#0cf18051b8)"><path fill="#ffffff" d="M 4.996094 15.28125 L 27.210938 15.28125 C 27.648438 15.28125 28.003906 14.929688 28.003906 14.5 C 28.003906 14.070312 27.648438 13.71875 27.210938 13.71875 L 4.996094 13.71875 C 4.554688 13.71875 4.199219 14.070312 4.199219 14.5 C 4.199219 14.929688 4.554688 15.28125 4.996094 15.28125 Z M 4.996094 15.28125 " fill-opacity="1" fill-rule="nonzero"/></g></svg>